<mxfile host="65bd71144e">
    <diagram id="GLd6WaoG0j6-OQ8SIizE" name="normal">
        <mxGraphModel dx="805" dy="649" grid="1" gridSize="10" guides="1" tooltips="1" connect="1" arrows="1" fold="1" page="1" pageScale="1" pageWidth="827" pageHeight="1169" math="0" shadow="0">
            <root>
                <mxCell id="MVLvauhrAPJutLyDIWaP-0"/>
                <mxCell id="MVLvauhrAPJutLyDIWaP-1" parent="MVLvauhrAPJutLyDIWaP-0"/>
                <mxCell id="MVLvauhrAPJutLyDIWaP-3" value="&lt;font color=&quot;#ffffff&quot;&gt;AWS Cloud&lt;/font&gt;" style="points=[[0,0],[0.25,0],[0.5,0],[0.75,0],[1,0],[1,0.25],[1,0.5],[1,0.75],[1,1],[0.75,1],[0.5,1],[0.25,1],[0,1],[0,0.75],[0,0.5],[0,0.25]];outlineConnect=0;gradientColor=none;html=1;whiteSpace=wrap;fontSize=12;fontStyle=0;shape=mxgraph.aws4.group;grIcon=mxgraph.aws4.group_aws_cloud_alt;fillColor=none;verticalAlign=top;align=left;spacingLeft=30;fontColor=#232F3E;dashed=0;strokeColor=#FFFFFF;fontFamily=游ゴシック;" parent="MVLvauhrAPJutLyDIWaP-1" vertex="1">
                    <mxGeometry x="30" y="40" width="770" height="540" as="geometry"/>
                </mxCell>
                <mxCell id="MVLvauhrAPJutLyDIWaP-30" value="Workload VPC2&lt;br&gt;10.2.0.0/16" style="points=[[0,0],[0.25,0],[0.5,0],[0.75,0],[1,0],[1,0.25],[1,0.5],[1,0.75],[1,1],[0.75,1],[0.5,1],[0.25,1],[0,1],[0,0.75],[0,0.5],[0,0.25]];outlineConnect=0;gradientColor=none;html=1;whiteSpace=wrap;fontSize=12;fontStyle=0;shape=mxgraph.aws4.group;grIcon=mxgraph.aws4.group_vpc;strokeColor=#248814;fillColor=none;verticalAlign=top;align=left;spacingLeft=30;fontColor=#AAB7B8;dashed=0;fontFamily=游ゴシック;" parent="MVLvauhrAPJutLyDIWaP-1" vertex="1">
                    <mxGeometry x="520" y="350" width="160" height="210" as="geometry"/>
                </mxCell>
                <mxCell id="MVLvauhrAPJutLyDIWaP-6" value="Workload VPC1&lt;br&gt;10.1.0.0/16" style="points=[[0,0],[0.25,0],[0.5,0],[0.75,0],[1,0],[1,0.25],[1,0.5],[1,0.75],[1,1],[0.75,1],[0.5,1],[0.25,1],[0,1],[0,0.75],[0,0.5],[0,0.25]];outlineConnect=0;gradientColor=none;html=1;whiteSpace=wrap;fontSize=12;fontStyle=0;shape=mxgraph.aws4.group;grIcon=mxgraph.aws4.group_vpc;strokeColor=#248814;fillColor=none;verticalAlign=top;align=left;spacingLeft=30;fontColor=#AAB7B8;dashed=0;fontFamily=游ゴシック;" parent="MVLvauhrAPJutLyDIWaP-1" vertex="1">
                    <mxGeometry x="520" y="70" width="160" height="210" as="geometry"/>
                </mxCell>
                <mxCell id="MVLvauhrAPJutLyDIWaP-2" value="Private subnet" style="points=[[0,0],[0.25,0],[0.5,0],[0.75,0],[1,0],[1,0.25],[1,0.5],[1,0.75],[1,1],[0.75,1],[0.5,1],[0.25,1],[0,1],[0,0.75],[0,0.5],[0,0.25]];outlineConnect=0;gradientColor=none;html=1;whiteSpace=wrap;fontSize=12;fontStyle=0;shape=mxgraph.aws4.group;grIcon=mxgraph.aws4.group_security_group;grStroke=0;strokeColor=#147EBA;fillColor=#E6F2F8;verticalAlign=top;align=left;spacingLeft=30;fontColor=#147EBA;dashed=0;fontFamily=游ゴシック;" parent="MVLvauhrAPJutLyDIWaP-1" vertex="1">
                    <mxGeometry x="540" y="390" width="120" height="70" as="geometry"/>
                </mxCell>
                <mxCell id="y-XJoDhD-Dag4y7f5LfR-1" style="edgeStyle=orthogonalEdgeStyle;rounded=0;orthogonalLoop=1;jettySize=auto;html=1;exitX=0;exitY=0.5;exitDx=0;exitDy=0;entryX=1;entryY=0.5;entryDx=0;entryDy=0;fontFamily=游ゴシック;fontSize=9;dashed=1;endArrow=none;endFill=0;strokeColor=#FFFFFF;" parent="MVLvauhrAPJutLyDIWaP-1" source="MVLvauhrAPJutLyDIWaP-4" target="MVLvauhrAPJutLyDIWaP-61" edge="1">
                    <mxGeometry relative="1" as="geometry"/>
                </mxCell>
                <mxCell id="MVLvauhrAPJutLyDIWaP-4" value="Private subnet" style="points=[[0,0],[0.25,0],[0.5,0],[0.75,0],[1,0],[1,0.25],[1,0.5],[1,0.75],[1,1],[0.75,1],[0.5,1],[0.25,1],[0,1],[0,0.75],[0,0.5],[0,0.25]];outlineConnect=0;gradientColor=none;html=1;whiteSpace=wrap;fontSize=12;fontStyle=0;shape=mxgraph.aws4.group;grIcon=mxgraph.aws4.group_security_group;grStroke=0;strokeColor=#147EBA;fillColor=#E6F2F8;verticalAlign=top;align=left;spacingLeft=30;fontColor=#147EBA;dashed=0;fontFamily=游ゴシック;" parent="MVLvauhrAPJutLyDIWaP-1" vertex="1">
                    <mxGeometry x="540" y="190" width="120" height="70" as="geometry"/>
                </mxCell>
                <mxCell id="MVLvauhrAPJutLyDIWaP-5" value="Private subnet" style="points=[[0,0],[0.25,0],[0.5,0],[0.75,0],[1,0],[1,0.25],[1,0.5],[1,0.75],[1,1],[0.75,1],[0.5,1],[0.25,1],[0,1],[0,0.75],[0,0.5],[0,0.25]];outlineConnect=0;gradientColor=none;html=1;whiteSpace=wrap;fontSize=12;fontStyle=0;shape=mxgraph.aws4.group;grIcon=mxgraph.aws4.group_security_group;grStroke=0;strokeColor=#147EBA;fillColor=#E6F2F8;verticalAlign=top;align=left;spacingLeft=30;fontColor=#147EBA;dashed=0;fontFamily=游ゴシック;" parent="MVLvauhrAPJutLyDIWaP-1" vertex="1">
                    <mxGeometry x="540" y="110" width="120" height="70" as="geometry"/>
                </mxCell>
                <mxCell id="MVLvauhrAPJutLyDIWaP-7" value="" style="outlineConnect=0;fontColor=#232F3E;gradientColor=none;fillColor=#D86613;strokeColor=none;dashed=0;verticalLabelPosition=bottom;verticalAlign=top;align=center;html=1;fontSize=12;fontStyle=0;aspect=fixed;pointerEvents=1;shape=mxgraph.aws4.instance2;fontFamily=游ゴシック;" parent="MVLvauhrAPJutLyDIWaP-1" vertex="1">
                    <mxGeometry x="583" y="140" width="34" height="34" as="geometry"/>
                </mxCell>
                <mxCell id="MVLvauhrAPJutLyDIWaP-8" value="" style="outlineConnect=0;fontColor=#232F3E;gradientColor=none;fillColor=#5A30B5;strokeColor=none;dashed=0;verticalLabelPosition=bottom;verticalAlign=top;align=center;html=1;fontSize=12;fontStyle=0;aspect=fixed;pointerEvents=1;shape=mxgraph.aws4.elastic_network_interface;fontFamily=游ゴシック;" parent="MVLvauhrAPJutLyDIWaP-1" vertex="1">
                    <mxGeometry x="581" y="210" width="38" height="38" as="geometry"/>
                </mxCell>
                <mxCell id="MVLvauhrAPJutLyDIWaP-9" value="" style="shape=table;html=1;whiteSpace=wrap;startSize=0;container=1;collapsible=0;childLayout=tableLayout;fontFamily=游ゴシック;" parent="MVLvauhrAPJutLyDIWaP-1" vertex="1">
                    <mxGeometry x="650" y="120" width="130" height="60" as="geometry"/>
                </mxCell>
                <mxCell id="MVLvauhrAPJutLyDIWaP-10" value="" style="shape=partialRectangle;html=1;whiteSpace=wrap;collapsible=0;dropTarget=0;pointerEvents=0;fillColor=none;top=0;left=0;bottom=0;right=0;points=[[0,0.5],[1,0.5]];portConstraint=eastwest;fontFamily=游ゴシック;strokeColor=#FFFFFF;labelBorderColor=none;labelBackgroundColor=none;" parent="MVLvauhrAPJutLyDIWaP-9" vertex="1">
                    <mxGeometry width="130" height="20" as="geometry"/>
                </mxCell>
                <mxCell id="MVLvauhrAPJutLyDIWaP-11" value="&lt;font&gt;Route&lt;/font&gt;" style="shape=partialRectangle;html=1;whiteSpace=wrap;connectable=0;overflow=hidden;top=0;left=0;bottom=0;right=0;fontFamily=游ゴシック;fontColor=#ffffff;fillColor=#000066;strokeColor=#FFFFFF;" parent="MVLvauhrAPJutLyDIWaP-10" vertex="1">
                    <mxGeometry width="71" height="20" as="geometry"/>
                </mxCell>
                <mxCell id="MVLvauhrAPJutLyDIWaP-12" value="Dest" style="shape=partialRectangle;html=1;whiteSpace=wrap;connectable=0;overflow=hidden;top=0;left=0;bottom=0;right=0;fontFamily=游ゴシック;strokeColor=#001DBC;fontColor=#ffffff;fillColor=#000066;" parent="MVLvauhrAPJutLyDIWaP-10" vertex="1">
                    <mxGeometry x="71" width="59" height="20" as="geometry"/>
                </mxCell>
                <mxCell id="MVLvauhrAPJutLyDIWaP-13" value="" style="shape=partialRectangle;html=1;whiteSpace=wrap;collapsible=0;dropTarget=0;pointerEvents=0;fillColor=none;top=0;left=0;bottom=0;right=0;points=[[0,0.5],[1,0.5]];portConstraint=eastwest;fontFamily=游ゴシック;" parent="MVLvauhrAPJutLyDIWaP-9" vertex="1">
                    <mxGeometry y="20" width="130" height="20" as="geometry"/>
                </mxCell>
                <mxCell id="MVLvauhrAPJutLyDIWaP-14" value="10.2.0.0/16" style="shape=partialRectangle;html=1;whiteSpace=wrap;connectable=0;overflow=hidden;fillColor=none;top=0;left=0;bottom=0;right=0;fontFamily=游ゴシック;" parent="MVLvauhrAPJutLyDIWaP-13" vertex="1">
                    <mxGeometry width="71" height="20" as="geometry"/>
                </mxCell>
                <mxCell id="MVLvauhrAPJutLyDIWaP-15" value="tgw" style="shape=partialRectangle;html=1;whiteSpace=wrap;connectable=0;overflow=hidden;fillColor=none;top=0;left=0;bottom=0;right=0;fontFamily=游ゴシック;" parent="MVLvauhrAPJutLyDIWaP-13" vertex="1">
                    <mxGeometry x="71" width="59" height="20" as="geometry"/>
                </mxCell>
                <mxCell id="MVLvauhrAPJutLyDIWaP-16" value="" style="shape=partialRectangle;html=1;whiteSpace=wrap;collapsible=0;dropTarget=0;pointerEvents=0;fillColor=none;top=0;left=0;bottom=0;right=0;points=[[0,0.5],[1,0.5]];portConstraint=eastwest;fontFamily=游ゴシック;" parent="MVLvauhrAPJutLyDIWaP-9" vertex="1">
                    <mxGeometry y="40" width="130" height="20" as="geometry"/>
                </mxCell>
                <mxCell id="MVLvauhrAPJutLyDIWaP-17" value="0.0.0.0/0" style="shape=partialRectangle;html=1;whiteSpace=wrap;connectable=0;overflow=hidden;fillColor=none;top=0;left=0;bottom=0;right=0;fontFamily=游ゴシック;" parent="MVLvauhrAPJutLyDIWaP-16" vertex="1">
                    <mxGeometry width="71" height="20" as="geometry"/>
                </mxCell>
                <mxCell id="MVLvauhrAPJutLyDIWaP-18" value="tgw" style="shape=partialRectangle;html=1;whiteSpace=wrap;connectable=0;overflow=hidden;fillColor=none;top=0;left=0;bottom=0;right=0;fontFamily=游ゴシック;" parent="MVLvauhrAPJutLyDIWaP-16" vertex="1">
                    <mxGeometry x="71" width="59" height="20" as="geometry"/>
                </mxCell>
                <mxCell id="MVLvauhrAPJutLyDIWaP-19" value="" style="shape=table;html=1;whiteSpace=wrap;startSize=0;container=1;collapsible=0;childLayout=tableLayout;fontFamily=游ゴシック;" parent="MVLvauhrAPJutLyDIWaP-1" vertex="1">
                    <mxGeometry x="650" y="210" width="130" height="60" as="geometry"/>
                </mxCell>
                <mxCell id="MVLvauhrAPJutLyDIWaP-20" value="" style="shape=partialRectangle;html=1;whiteSpace=wrap;collapsible=0;dropTarget=0;pointerEvents=0;top=0;left=0;bottom=0;right=0;points=[[0,0.5],[1,0.5]];portConstraint=eastwest;fontFamily=游ゴシック;fillColor=#000066;" parent="MVLvauhrAPJutLyDIWaP-19" vertex="1">
                    <mxGeometry width="130" height="20" as="geometry"/>
                </mxCell>
                <mxCell id="MVLvauhrAPJutLyDIWaP-21" value="&lt;font&gt;Route&lt;/font&gt;" style="shape=partialRectangle;html=1;whiteSpace=wrap;connectable=0;overflow=hidden;fillColor=none;top=0;left=0;bottom=0;right=0;fontFamily=游ゴシック;" parent="MVLvauhrAPJutLyDIWaP-20" vertex="1">
                    <mxGeometry width="71" height="20" as="geometry"/>
                </mxCell>
                <mxCell id="MVLvauhrAPJutLyDIWaP-22" value="Dest" style="shape=partialRectangle;html=1;whiteSpace=wrap;connectable=0;overflow=hidden;fillColor=none;top=0;left=0;bottom=0;right=0;fontFamily=游ゴシック;" parent="MVLvauhrAPJutLyDIWaP-20" vertex="1">
                    <mxGeometry x="71" width="59" height="20" as="geometry"/>
                </mxCell>
                <mxCell id="MVLvauhrAPJutLyDIWaP-23" value="" style="shape=partialRectangle;html=1;whiteSpace=wrap;collapsible=0;dropTarget=0;pointerEvents=0;fillColor=none;top=0;left=0;bottom=0;right=0;points=[[0,0.5],[1,0.5]];portConstraint=eastwest;fontFamily=游ゴシック;" parent="MVLvauhrAPJutLyDIWaP-19" vertex="1">
                    <mxGeometry y="20" width="130" height="20" as="geometry"/>
                </mxCell>
                <mxCell id="MVLvauhrAPJutLyDIWaP-24" value="10.2.0.0/16" style="shape=partialRectangle;html=1;whiteSpace=wrap;connectable=0;overflow=hidden;fillColor=none;top=0;left=0;bottom=0;right=0;fontFamily=游ゴシック;" parent="MVLvauhrAPJutLyDIWaP-23" vertex="1">
                    <mxGeometry width="71" height="20" as="geometry"/>
                </mxCell>
                <mxCell id="MVLvauhrAPJutLyDIWaP-25" value="tgw" style="shape=partialRectangle;html=1;whiteSpace=wrap;connectable=0;overflow=hidden;fillColor=none;top=0;left=0;bottom=0;right=0;fontFamily=游ゴシック;" parent="MVLvauhrAPJutLyDIWaP-23" vertex="1">
                    <mxGeometry x="71" width="59" height="20" as="geometry"/>
                </mxCell>
                <mxCell id="MVLvauhrAPJutLyDIWaP-26" value="" style="shape=partialRectangle;html=1;whiteSpace=wrap;collapsible=0;dropTarget=0;pointerEvents=0;fillColor=none;top=0;left=0;bottom=0;right=0;points=[[0,0.5],[1,0.5]];portConstraint=eastwest;fontFamily=游ゴシック;" parent="MVLvauhrAPJutLyDIWaP-19" vertex="1">
                    <mxGeometry y="40" width="130" height="20" as="geometry"/>
                </mxCell>
                <mxCell id="MVLvauhrAPJutLyDIWaP-27" value="0.0.0.0/0" style="shape=partialRectangle;html=1;whiteSpace=wrap;connectable=0;overflow=hidden;fillColor=none;top=0;left=0;bottom=0;right=0;fontFamily=游ゴシック;" parent="MVLvauhrAPJutLyDIWaP-26" vertex="1">
                    <mxGeometry width="71" height="20" as="geometry"/>
                </mxCell>
                <mxCell id="MVLvauhrAPJutLyDIWaP-28" value="tgw" style="shape=partialRectangle;html=1;whiteSpace=wrap;connectable=0;overflow=hidden;fillColor=none;top=0;left=0;bottom=0;right=0;fontFamily=游ゴシック;" parent="MVLvauhrAPJutLyDIWaP-26" vertex="1">
                    <mxGeometry x="71" width="59" height="20" as="geometry"/>
                </mxCell>
                <mxCell id="MVLvauhrAPJutLyDIWaP-29" value="" style="outlineConnect=0;fontColor=#232F3E;gradientColor=none;fillColor=#D86613;strokeColor=none;dashed=0;verticalLabelPosition=bottom;verticalAlign=top;align=center;html=1;fontSize=12;fontStyle=0;aspect=fixed;pointerEvents=1;shape=mxgraph.aws4.instance2;fontFamily=游ゴシック;" parent="MVLvauhrAPJutLyDIWaP-1" vertex="1">
                    <mxGeometry x="583" y="420" width="34" height="34" as="geometry"/>
                </mxCell>
                <mxCell id="y-XJoDhD-Dag4y7f5LfR-2" style="edgeStyle=orthogonalEdgeStyle;rounded=0;orthogonalLoop=1;jettySize=auto;html=1;exitX=0;exitY=0.5;exitDx=0;exitDy=0;fontFamily=游ゴシック;fontSize=9;labelBorderColor=none;dashed=1;endArrow=none;endFill=0;strokeColor=#FFFFFF;" parent="MVLvauhrAPJutLyDIWaP-1" source="MVLvauhrAPJutLyDIWaP-31" target="MVLvauhrAPJutLyDIWaP-61" edge="1">
                    <mxGeometry relative="1" as="geometry"/>
                </mxCell>
                <mxCell id="MVLvauhrAPJutLyDIWaP-31" value="Private subnet" style="points=[[0,0],[0.25,0],[0.5,0],[0.75,0],[1,0],[1,0.25],[1,0.5],[1,0.75],[1,1],[0.75,1],[0.5,1],[0.25,1],[0,1],[0,0.75],[0,0.5],[0,0.25]];outlineConnect=0;gradientColor=none;html=1;whiteSpace=wrap;fontSize=12;fontStyle=0;shape=mxgraph.aws4.group;grIcon=mxgraph.aws4.group_security_group;grStroke=0;strokeColor=#147EBA;fillColor=#E6F2F8;verticalAlign=top;align=left;spacingLeft=30;fontColor=#147EBA;dashed=0;fontFamily=游ゴシック;" parent="MVLvauhrAPJutLyDIWaP-1" vertex="1">
                    <mxGeometry x="540" y="470" width="120" height="70" as="geometry"/>
                </mxCell>
                <mxCell id="MVLvauhrAPJutLyDIWaP-32" style="rounded=0;orthogonalLoop=1;jettySize=auto;html=1;exitX=1;exitY=0.5;exitDx=0;exitDy=0;exitPerimeter=0;strokeColor=#945DF2;opacity=80;fontFamily=游ゴシック;" parent="MVLvauhrAPJutLyDIWaP-1" source="MVLvauhrAPJutLyDIWaP-55" target="MVLvauhrAPJutLyDIWaP-33" edge="1">
                    <mxGeometry relative="1" as="geometry">
                        <mxPoint x="444" y="300" as="sourcePoint"/>
                        <mxPoint x="500" y="600" as="targetPoint"/>
                    </mxGeometry>
                </mxCell>
                <mxCell id="MVLvauhrAPJutLyDIWaP-33" value="" style="outlineConnect=0;fontColor=#232F3E;gradientColor=none;fillColor=#5A30B5;strokeColor=none;dashed=0;verticalLabelPosition=bottom;verticalAlign=top;align=center;html=1;fontSize=12;fontStyle=0;aspect=fixed;pointerEvents=1;shape=mxgraph.aws4.elastic_network_interface;fontFamily=游ゴシック;" parent="MVLvauhrAPJutLyDIWaP-1" vertex="1">
                    <mxGeometry x="581" y="490" width="38" height="38" as="geometry"/>
                </mxCell>
                <mxCell id="MVLvauhrAPJutLyDIWaP-34" value="" style="shape=table;html=1;whiteSpace=wrap;startSize=0;container=1;collapsible=0;childLayout=tableLayout;fontFamily=游ゴシック;" parent="MVLvauhrAPJutLyDIWaP-1" vertex="1">
                    <mxGeometry x="650" y="400" width="130" height="60" as="geometry"/>
                </mxCell>
                <mxCell id="MVLvauhrAPJutLyDIWaP-35" value="" style="shape=partialRectangle;html=1;whiteSpace=wrap;collapsible=0;dropTarget=0;pointerEvents=0;top=0;left=0;bottom=0;right=0;points=[[0,0.5],[1,0.5]];portConstraint=eastwest;fontFamily=游ゴシック;fontColor=#ffffff;fillColor=#000066;strokeColor=none;" parent="MVLvauhrAPJutLyDIWaP-34" vertex="1">
                    <mxGeometry width="130" height="20" as="geometry"/>
                </mxCell>
                <mxCell id="MVLvauhrAPJutLyDIWaP-36" value="&lt;font&gt;Route&lt;/font&gt;" style="shape=partialRectangle;html=1;whiteSpace=wrap;connectable=0;overflow=hidden;fillColor=none;top=0;left=0;bottom=0;right=0;fontFamily=游ゴシック;" parent="MVLvauhrAPJutLyDIWaP-35" vertex="1">
                    <mxGeometry width="71" height="20" as="geometry"/>
                </mxCell>
                <mxCell id="MVLvauhrAPJutLyDIWaP-37" value="Dest" style="shape=partialRectangle;html=1;whiteSpace=wrap;connectable=0;overflow=hidden;fillColor=none;top=0;left=0;bottom=0;right=0;fontFamily=游ゴシック;" parent="MVLvauhrAPJutLyDIWaP-35" vertex="1">
                    <mxGeometry x="71" width="59" height="20" as="geometry"/>
                </mxCell>
                <mxCell id="MVLvauhrAPJutLyDIWaP-38" value="" style="shape=partialRectangle;html=1;whiteSpace=wrap;collapsible=0;dropTarget=0;pointerEvents=0;fillColor=none;top=0;left=0;bottom=0;right=0;points=[[0,0.5],[1,0.5]];portConstraint=eastwest;fontFamily=游ゴシック;" parent="MVLvauhrAPJutLyDIWaP-34" vertex="1">
                    <mxGeometry y="20" width="130" height="20" as="geometry"/>
                </mxCell>
                <mxCell id="MVLvauhrAPJutLyDIWaP-39" value="10.2.0.0/16" style="shape=partialRectangle;html=1;whiteSpace=wrap;connectable=0;overflow=hidden;fillColor=none;top=0;left=0;bottom=0;right=0;fontFamily=游ゴシック;" parent="MVLvauhrAPJutLyDIWaP-38" vertex="1">
                    <mxGeometry width="71" height="20" as="geometry"/>
                </mxCell>
                <mxCell id="MVLvauhrAPJutLyDIWaP-40" value="tgw" style="shape=partialRectangle;html=1;whiteSpace=wrap;connectable=0;overflow=hidden;fillColor=none;top=0;left=0;bottom=0;right=0;fontFamily=游ゴシック;" parent="MVLvauhrAPJutLyDIWaP-38" vertex="1">
                    <mxGeometry x="71" width="59" height="20" as="geometry"/>
                </mxCell>
                <mxCell id="MVLvauhrAPJutLyDIWaP-41" value="" style="shape=partialRectangle;html=1;whiteSpace=wrap;collapsible=0;dropTarget=0;pointerEvents=0;fillColor=none;top=0;left=0;bottom=0;right=0;points=[[0,0.5],[1,0.5]];portConstraint=eastwest;fontFamily=游ゴシック;" parent="MVLvauhrAPJutLyDIWaP-34" vertex="1">
                    <mxGeometry y="40" width="130" height="20" as="geometry"/>
                </mxCell>
                <mxCell id="MVLvauhrAPJutLyDIWaP-42" value="0.0.0.0/0" style="shape=partialRectangle;html=1;whiteSpace=wrap;connectable=0;overflow=hidden;fillColor=none;top=0;left=0;bottom=0;right=0;fontFamily=游ゴシック;" parent="MVLvauhrAPJutLyDIWaP-41" vertex="1">
                    <mxGeometry width="71" height="20" as="geometry"/>
                </mxCell>
                <mxCell id="MVLvauhrAPJutLyDIWaP-43" value="tgw" style="shape=partialRectangle;html=1;whiteSpace=wrap;connectable=0;overflow=hidden;fillColor=none;top=0;left=0;bottom=0;right=0;fontFamily=游ゴシック;" parent="MVLvauhrAPJutLyDIWaP-41" vertex="1">
                    <mxGeometry x="71" width="59" height="20" as="geometry"/>
                </mxCell>
                <mxCell id="MVLvauhrAPJutLyDIWaP-44" value="" style="shape=table;html=1;whiteSpace=wrap;startSize=0;container=1;collapsible=0;childLayout=tableLayout;fontFamily=游ゴシック;" parent="MVLvauhrAPJutLyDIWaP-1" vertex="1">
                    <mxGeometry x="650" y="490" width="130" height="60" as="geometry"/>
                </mxCell>
                <mxCell id="MVLvauhrAPJutLyDIWaP-45" value="" style="shape=partialRectangle;html=1;whiteSpace=wrap;collapsible=0;dropTarget=0;pointerEvents=0;top=0;left=0;bottom=0;right=0;points=[[0,0.5],[1,0.5]];portConstraint=eastwest;fontFamily=游ゴシック;fillColor=#000066;" parent="MVLvauhrAPJutLyDIWaP-44" vertex="1">
                    <mxGeometry width="130" height="20" as="geometry"/>
                </mxCell>
                <mxCell id="MVLvauhrAPJutLyDIWaP-46" value="&lt;font&gt;Route&lt;/font&gt;" style="shape=partialRectangle;html=1;whiteSpace=wrap;connectable=0;overflow=hidden;fillColor=none;top=0;left=0;bottom=0;right=0;fontFamily=游ゴシック;" parent="MVLvauhrAPJutLyDIWaP-45" vertex="1">
                    <mxGeometry width="71" height="20" as="geometry"/>
                </mxCell>
                <mxCell id="MVLvauhrAPJutLyDIWaP-47" value="Dest" style="shape=partialRectangle;html=1;whiteSpace=wrap;connectable=0;overflow=hidden;fillColor=none;top=0;left=0;bottom=0;right=0;fontFamily=游ゴシック;" parent="MVLvauhrAPJutLyDIWaP-45" vertex="1">
                    <mxGeometry x="71" width="59" height="20" as="geometry"/>
                </mxCell>
                <mxCell id="MVLvauhrAPJutLyDIWaP-48" value="" style="shape=partialRectangle;html=1;whiteSpace=wrap;collapsible=0;dropTarget=0;pointerEvents=0;fillColor=none;top=0;left=0;bottom=0;right=0;points=[[0,0.5],[1,0.5]];portConstraint=eastwest;fontFamily=游ゴシック;" parent="MVLvauhrAPJutLyDIWaP-44" vertex="1">
                    <mxGeometry y="20" width="130" height="20" as="geometry"/>
                </mxCell>
                <mxCell id="MVLvauhrAPJutLyDIWaP-49" value="10.2.0.0/16" style="shape=partialRectangle;html=1;whiteSpace=wrap;connectable=0;overflow=hidden;fillColor=none;top=0;left=0;bottom=0;right=0;fontFamily=游ゴシック;" parent="MVLvauhrAPJutLyDIWaP-48" vertex="1">
                    <mxGeometry width="71" height="20" as="geometry"/>
                </mxCell>
                <mxCell id="MVLvauhrAPJutLyDIWaP-50" value="tgw" style="shape=partialRectangle;html=1;whiteSpace=wrap;connectable=0;overflow=hidden;fillColor=none;top=0;left=0;bottom=0;right=0;fontFamily=游ゴシック;" parent="MVLvauhrAPJutLyDIWaP-48" vertex="1">
                    <mxGeometry x="71" width="59" height="20" as="geometry"/>
                </mxCell>
                <mxCell id="MVLvauhrAPJutLyDIWaP-51" value="" style="shape=partialRectangle;html=1;whiteSpace=wrap;collapsible=0;dropTarget=0;pointerEvents=0;fillColor=none;top=0;left=0;bottom=0;right=0;points=[[0,0.5],[1,0.5]];portConstraint=eastwest;fontFamily=游ゴシック;" parent="MVLvauhrAPJutLyDIWaP-44" vertex="1">
                    <mxGeometry y="40" width="130" height="20" as="geometry"/>
                </mxCell>
                <mxCell id="MVLvauhrAPJutLyDIWaP-52" value="0.0.0.0/0" style="shape=partialRectangle;html=1;whiteSpace=wrap;connectable=0;overflow=hidden;fillColor=none;top=0;left=0;bottom=0;right=0;fontFamily=游ゴシック;" parent="MVLvauhrAPJutLyDIWaP-51" vertex="1">
                    <mxGeometry width="71" height="20" as="geometry"/>
                </mxCell>
                <mxCell id="MVLvauhrAPJutLyDIWaP-53" value="tgw" style="shape=partialRectangle;html=1;whiteSpace=wrap;connectable=0;overflow=hidden;fillColor=none;top=0;left=0;bottom=0;right=0;fontFamily=游ゴシック;" parent="MVLvauhrAPJutLyDIWaP-51" vertex="1">
                    <mxGeometry x="71" width="59" height="20" as="geometry"/>
                </mxCell>
                <mxCell id="MVLvauhrAPJutLyDIWaP-54" style="rounded=0;orthogonalLoop=1;jettySize=auto;html=1;exitX=1;exitY=0.5;exitDx=0;exitDy=0;exitPerimeter=0;strokeColor=#945DF2;opacity=80;fontFamily=游ゴシック;" parent="MVLvauhrAPJutLyDIWaP-1" source="MVLvauhrAPJutLyDIWaP-55" target="MVLvauhrAPJutLyDIWaP-8" edge="1">
                    <mxGeometry relative="1" as="geometry">
                        <mxPoint x="454" y="310" as="sourcePoint"/>
                        <mxPoint x="591" y="519" as="targetPoint"/>
                    </mxGeometry>
                </mxCell>
                <mxCell id="MVLvauhrAPJutLyDIWaP-55" value="" style="points=[[0,0,0],[0.25,0,0],[0.5,0,0],[0.75,0,0],[1,0,0],[0,1,0],[0.25,1,0],[0.5,1,0],[0.75,1,0],[1,1,0],[0,0.25,0],[0,0.5,0],[0,0.75,0],[1,0.25,0],[1,0.5,0],[1,0.75,0]];outlineConnect=0;fontColor=#232F3E;gradientDirection=north;fillColor=#5A30B5;strokeColor=#ffffff;dashed=0;verticalLabelPosition=bottom;verticalAlign=top;align=center;html=1;fontSize=12;fontStyle=0;aspect=fixed;shape=mxgraph.aws4.resourceIcon;resIcon=mxgraph.aws4.transit_gateway;gradientColor=#945DF2;fontFamily=游ゴシック;" parent="MVLvauhrAPJutLyDIWaP-1" vertex="1">
                    <mxGeometry x="384" y="270" width="60" height="60" as="geometry"/>
                </mxCell>
                <mxCell id="MVLvauhrAPJutLyDIWaP-56" value="" style="shape=table;html=1;whiteSpace=wrap;startSize=0;container=1;collapsible=0;childLayout=tableLayout;fontFamily=游ゴシック;fontSize=9;" parent="MVLvauhrAPJutLyDIWaP-1" vertex="1">
                    <mxGeometry x="338" y="350" width="151" height="73" as="geometry"/>
                </mxCell>
                <mxCell id="MVLvauhrAPJutLyDIWaP-57" value="" style="shape=partialRectangle;html=1;whiteSpace=wrap;collapsible=0;dropTarget=0;pointerEvents=0;fillColor=none;top=0;left=0;bottom=0;right=0;points=[[0,0.5],[1,0.5]];portConstraint=eastwest;fontFamily=游ゴシック;" parent="MVLvauhrAPJutLyDIWaP-56" vertex="1">
                    <mxGeometry width="151" height="30" as="geometry"/>
                </mxCell>
                <mxCell id="MVLvauhrAPJutLyDIWaP-58" value="&lt;font style=&quot;font-size: 9px;&quot;&gt;Route&lt;/font&gt;" style="shape=partialRectangle;html=1;whiteSpace=wrap;connectable=0;overflow=hidden;top=0;left=0;bottom=0;right=0;fontSize=9;fontFamily=游ゴシック;strokeColor=#001DBC;fontColor=#ffffff;fillColor=#000066;" parent="MVLvauhrAPJutLyDIWaP-57" vertex="1">
                    <mxGeometry width="49" height="30" as="geometry"/>
                </mxCell>
                <mxCell id="MVLvauhrAPJutLyDIWaP-59" value="Dest" style="shape=partialRectangle;html=1;whiteSpace=wrap;connectable=0;overflow=hidden;top=0;left=0;bottom=0;right=0;fontSize=9;fontFamily=游ゴシック;strokeColor=#001DBC;fontColor=#ffffff;fillColor=#000066;" parent="MVLvauhrAPJutLyDIWaP-57" vertex="1">
                    <mxGeometry x="49" width="52" height="30" as="geometry"/>
                </mxCell>
                <mxCell id="MVLvauhrAPJutLyDIWaP-60" value="Route&lt;br style=&quot;font-size: 9px;&quot;&gt;Type" style="shape=partialRectangle;html=1;whiteSpace=wrap;connectable=0;overflow=hidden;top=0;left=0;bottom=0;right=0;fontSize=9;fontFamily=游ゴシック;strokeColor=#001DBC;fontColor=#ffffff;fillColor=#000066;" parent="MVLvauhrAPJutLyDIWaP-57" vertex="1">
                    <mxGeometry x="101" width="50" height="30" as="geometry"/>
                </mxCell>
                <mxCell id="MVLvauhrAPJutLyDIWaP-61" value="" style="shape=partialRectangle;html=1;whiteSpace=wrap;collapsible=0;dropTarget=0;pointerEvents=0;fillColor=none;top=0;left=0;bottom=0;right=0;points=[[0,0.5],[1,0.5]];portConstraint=eastwest;fontFamily=游ゴシック;" parent="MVLvauhrAPJutLyDIWaP-56" vertex="1">
                    <mxGeometry y="30" width="151" height="20" as="geometry"/>
                </mxCell>
                <mxCell id="MVLvauhrAPJutLyDIWaP-62" value="10.2.0.0/16" style="shape=partialRectangle;html=1;whiteSpace=wrap;connectable=0;overflow=hidden;fillColor=none;top=0;left=0;bottom=0;right=0;fontFamily=游ゴシック;fontSize=9;" parent="MVLvauhrAPJutLyDIWaP-61" vertex="1">
                    <mxGeometry width="49" height="20" as="geometry"/>
                </mxCell>
                <mxCell id="MVLvauhrAPJutLyDIWaP-63" value="tgw" style="shape=partialRectangle;html=1;whiteSpace=wrap;connectable=0;overflow=hidden;fillColor=none;top=0;left=0;bottom=0;right=0;fontFamily=游ゴシック;fontSize=9;" parent="MVLvauhrAPJutLyDIWaP-61" vertex="1">
                    <mxGeometry x="49" width="52" height="20" as="geometry"/>
                </mxCell>
                <mxCell id="MVLvauhrAPJutLyDIWaP-64" value="propagated" style="shape=partialRectangle;html=1;whiteSpace=wrap;connectable=0;overflow=hidden;fillColor=none;top=0;left=0;bottom=0;right=0;fontFamily=游ゴシック;fontSize=9;" parent="MVLvauhrAPJutLyDIWaP-61" vertex="1">
                    <mxGeometry x="101" width="50" height="20" as="geometry"/>
                </mxCell>
                <mxCell id="MVLvauhrAPJutLyDIWaP-65" value="" style="shape=partialRectangle;html=1;whiteSpace=wrap;collapsible=0;dropTarget=0;pointerEvents=0;fillColor=none;top=0;left=0;bottom=0;right=0;points=[[0,0.5],[1,0.5]];portConstraint=eastwest;fontFamily=游ゴシック;" parent="MVLvauhrAPJutLyDIWaP-56" vertex="1">
                    <mxGeometry y="50" width="151" height="23" as="geometry"/>
                </mxCell>
                <mxCell id="MVLvauhrAPJutLyDIWaP-66" value="0.0.0.0/0" style="shape=partialRectangle;html=1;whiteSpace=wrap;connectable=0;overflow=hidden;fillColor=none;top=0;left=0;bottom=0;right=0;fontFamily=游ゴシック;fontSize=9;" parent="MVLvauhrAPJutLyDIWaP-65" vertex="1">
                    <mxGeometry width="49" height="23" as="geometry"/>
                </mxCell>
                <mxCell id="MVLvauhrAPJutLyDIWaP-67" value="tgw" style="shape=partialRectangle;html=1;whiteSpace=wrap;connectable=0;overflow=hidden;fillColor=none;top=0;left=0;bottom=0;right=0;fontFamily=游ゴシック;fontSize=9;" parent="MVLvauhrAPJutLyDIWaP-65" vertex="1">
                    <mxGeometry x="49" width="52" height="23" as="geometry"/>
                </mxCell>
                <mxCell id="MVLvauhrAPJutLyDIWaP-68" value="&lt;span style=&quot;font-size: 9px;&quot;&gt;propagated&lt;/span&gt;" style="shape=partialRectangle;html=1;whiteSpace=wrap;connectable=0;overflow=hidden;fillColor=none;top=0;left=0;bottom=0;right=0;fontFamily=游ゴシック;fontSize=9;" parent="MVLvauhrAPJutLyDIWaP-65" vertex="1">
                    <mxGeometry x="101" width="50" height="23" as="geometry"/>
                </mxCell>
            </root>
        </mxGraphModel>
    </diagram>
    <diagram id="-vz87926MnsITQSfToey" name="central-network">
        <mxGraphModel dx="805" dy="649" grid="1" gridSize="10" guides="1" tooltips="1" connect="1" arrows="1" fold="1" page="1" pageScale="1" pageWidth="827" pageHeight="1169" background="#1A1A1A" math="0" shadow="0">
            <root>
                <mxCell id="0"/>
                <mxCell id="1" parent="0"/>
                <mxCell id="ljHuYqDDihwQslWF1Obf-137" value="&lt;font color=&quot;#ffffff&quot;&gt;AWS Cloud&lt;/font&gt;" style="points=[[0,0],[0.25,0],[0.5,0],[0.75,0],[1,0],[1,0.25],[1,0.5],[1,0.75],[1,1],[0.75,1],[0.5,1],[0.25,1],[0,1],[0,0.75],[0,0.5],[0,0.25]];outlineConnect=0;gradientColor=none;html=1;whiteSpace=wrap;fontSize=12;fontStyle=0;shape=mxgraph.aws4.group;grIcon=mxgraph.aws4.group_aws_cloud_alt;fillColor=none;verticalAlign=top;align=left;spacingLeft=30;fontColor=#232F3E;dashed=0;strokeColor=#FFFFFF;fontFamily=游ゴシック;labelBackgroundColor=#1A1A1A;" parent="1" vertex="1">
                    <mxGeometry x="40" y="40" width="760" height="540" as="geometry"/>
                </mxCell>
                <mxCell id="84" value="&lt;font color=&quot;#248814&quot;&gt;Transit VPC2&lt;br&gt;10.3.0.0/16&lt;/font&gt;" style="points=[[0,0],[0.25,0],[0.5,0],[0.75,0],[1,0],[1,0.25],[1,0.5],[1,0.75],[1,1],[0.75,1],[0.5,1],[0.25,1],[0,1],[0,0.75],[0,0.5],[0,0.25]];outlineConnect=0;gradientColor=none;html=1;whiteSpace=wrap;fontSize=12;fontStyle=0;shape=mxgraph.aws4.group;grIcon=mxgraph.aws4.group_vpc;strokeColor=#248814;fillColor=none;verticalAlign=top;align=left;spacingLeft=30;fontColor=#AAB7B8;dashed=0;fontFamily=游ゴシック;" parent="1" vertex="1">
                    <mxGeometry x="120" y="70" width="160" height="210" as="geometry"/>
                </mxCell>
                <mxCell id="109" value="&lt;font color=&quot;#248814&quot;&gt;Transit VPC2&lt;br&gt;100.1.0.0/16&lt;/font&gt;" style="points=[[0,0],[0.25,0],[0.5,0],[0.75,0],[1,0],[1,0.25],[1,0.5],[1,0.75],[1,1],[0.75,1],[0.5,1],[0.25,1],[0,1],[0,0.75],[0,0.5],[0,0.25]];outlineConnect=0;gradientColor=none;html=1;whiteSpace=wrap;fontSize=12;fontStyle=0;shape=mxgraph.aws4.group;grIcon=mxgraph.aws4.group_vpc;fillColor=none;verticalAlign=top;align=left;spacingLeft=30;fontColor=#AAB7B8;dashed=0;fontFamily=游ゴシック;strokeColor=#248814;" parent="1" vertex="1">
                    <mxGeometry x="120" y="350" width="160" height="210" as="geometry"/>
                </mxCell>
                <mxCell id="59" value="&lt;font color=&quot;#248814&quot;&gt;Workload VPC2&lt;br&gt;10.2.0.0/16&lt;/font&gt;" style="points=[[0,0],[0.25,0],[0.5,0],[0.75,0],[1,0],[1,0.25],[1,0.5],[1,0.75],[1,1],[0.75,1],[0.5,1],[0.25,1],[0,1],[0,0.75],[0,0.5],[0,0.25]];outlineConnect=0;gradientColor=none;html=1;whiteSpace=wrap;fontSize=12;fontStyle=0;shape=mxgraph.aws4.group;grIcon=mxgraph.aws4.group_vpc;strokeColor=#248814;fillColor=none;verticalAlign=top;align=left;spacingLeft=30;fontColor=#AAB7B8;dashed=0;fontFamily=游ゴシック;" parent="1" vertex="1">
                    <mxGeometry x="540" y="350" width="160" height="210" as="geometry"/>
                </mxCell>
                <mxCell id="5" value="&lt;font color=&quot;#248814&quot;&gt;Workload VPC1&lt;br&gt;10.1.0.0/16&lt;/font&gt;" style="points=[[0,0],[0.25,0],[0.5,0],[0.75,0],[1,0],[1,0.25],[1,0.5],[1,0.75],[1,1],[0.75,1],[0.5,1],[0.25,1],[0,1],[0,0.75],[0,0.5],[0,0.25]];outlineConnect=0;gradientColor=none;html=1;whiteSpace=wrap;fontSize=12;fontStyle=0;shape=mxgraph.aws4.group;grIcon=mxgraph.aws4.group_vpc;strokeColor=#248814;fillColor=none;verticalAlign=top;align=left;spacingLeft=30;fontColor=#AAB7B8;dashed=0;fontFamily=游ゴシック;" parent="1" vertex="1">
                    <mxGeometry x="540" y="70" width="160" height="210" as="geometry"/>
                </mxCell>
                <mxCell id="132" value="Public subnet" style="points=[[0,0],[0.25,0],[0.5,0],[0.75,0],[1,0],[1,0.25],[1,0.5],[1,0.75],[1,1],[0.75,1],[0.5,1],[0.25,1],[0,1],[0,0.75],[0,0.5],[0,0.25]];outlineConnect=0;gradientColor=none;html=1;whiteSpace=wrap;fontSize=12;fontStyle=0;shape=mxgraph.aws4.group;grIcon=mxgraph.aws4.group_security_group;grStroke=0;strokeColor=#248814;fillColor=#E9F3E6;verticalAlign=top;align=left;spacingLeft=30;fontColor=#248814;dashed=0;fontFamily=游ゴシック;" parent="1" vertex="1">
                    <mxGeometry x="140" y="120" width="120" height="60" as="geometry"/>
                </mxCell>
                <mxCell id="4FM8l2REisANMKHJQLLM-194" value="" style="outlineConnect=0;fontColor=#232F3E;gradientColor=none;fillColor=#5A30B5;strokeColor=none;dashed=0;verticalLabelPosition=bottom;verticalAlign=top;align=center;html=1;fontSize=12;fontStyle=0;aspect=fixed;pointerEvents=1;shape=mxgraph.aws4.nat_gateway;labelBackgroundColor=#1A1A1A;" parent="1" vertex="1">
                    <mxGeometry x="181" y="138" width="38" height="38" as="geometry"/>
                </mxCell>
                <mxCell id="2" value="" style="points=[[0,0,0],[0.25,0,0],[0.5,0,0],[0.75,0,0],[1,0,0],[0,1,0],[0.25,1,0],[0.5,1,0],[0.75,1,0],[1,1,0],[0,0.25,0],[0,0.5,0],[0,0.75,0],[1,0.25,0],[1,0.5,0],[1,0.75,0]];outlineConnect=0;fontColor=#232F3E;gradientDirection=north;fillColor=#5A30B5;strokeColor=#ffffff;dashed=0;verticalLabelPosition=bottom;verticalAlign=top;align=center;html=1;fontSize=12;fontStyle=0;aspect=fixed;shape=mxgraph.aws4.resourceIcon;resIcon=mxgraph.aws4.transit_gateway;gradientColor=#945DF2;fontFamily=游ゴシック;" parent="1" vertex="1">
                    <mxGeometry x="384" y="270" width="60" height="60" as="geometry"/>
                </mxCell>
                <mxCell id="3" value="Private subnet" style="points=[[0,0],[0.25,0],[0.5,0],[0.75,0],[1,0],[1,0.25],[1,0.5],[1,0.75],[1,1],[0.75,1],[0.5,1],[0.25,1],[0,1],[0,0.75],[0,0.5],[0,0.25]];outlineConnect=0;gradientColor=none;html=1;whiteSpace=wrap;fontSize=12;fontStyle=0;shape=mxgraph.aws4.group;grIcon=mxgraph.aws4.group_security_group;grStroke=0;strokeColor=#147EBA;fillColor=#E6F2F8;verticalAlign=top;align=left;spacingLeft=30;fontColor=#147EBA;dashed=0;fontFamily=游ゴシック;" parent="1" vertex="1">
                    <mxGeometry x="560" y="190" width="120" height="70" as="geometry"/>
                </mxCell>
                <mxCell id="N2lBgZz-f1XNfhXOoynp-218" style="edgeStyle=orthogonalEdgeStyle;rounded=0;orthogonalLoop=1;jettySize=auto;html=1;exitX=0;exitY=0.5;exitDx=0;exitDy=0;entryX=1;entryY=0.5;entryDx=0;entryDy=0;endArrow=none;endFill=0;dashed=1;strokeColor=#FFFFFF;" parent="1" source="3" target="N2lBgZz-f1XNfhXOoynp-210" edge="1">
                    <mxGeometry relative="1" as="geometry">
                        <Array as="points">
                            <mxPoint x="510" y="225"/>
                            <mxPoint x="510" y="185"/>
                        </Array>
                    </mxGeometry>
                </mxCell>
                <mxCell id="4" value="Private subnet" style="points=[[0,0],[0.25,0],[0.5,0],[0.75,0],[1,0],[1,0.25],[1,0.5],[1,0.75],[1,1],[0.75,1],[0.5,1],[0.25,1],[0,1],[0,0.75],[0,0.5],[0,0.25]];outlineConnect=0;gradientColor=none;html=1;whiteSpace=wrap;fontSize=12;fontStyle=0;shape=mxgraph.aws4.group;grIcon=mxgraph.aws4.group_security_group;grStroke=0;strokeColor=#147EBA;fillColor=#E6F2F8;verticalAlign=top;align=left;spacingLeft=30;fontColor=#147EBA;dashed=0;fontFamily=游ゴシック;" parent="1" vertex="1">
                    <mxGeometry x="560" y="110" width="120" height="70" as="geometry"/>
                </mxCell>
                <mxCell id="6" value="" style="outlineConnect=0;fontColor=#232F3E;gradientColor=none;fillColor=#D86613;strokeColor=none;dashed=0;verticalLabelPosition=bottom;verticalAlign=top;align=center;html=1;fontSize=12;fontStyle=0;aspect=fixed;pointerEvents=1;shape=mxgraph.aws4.instance2;fontFamily=游ゴシック;" parent="1" vertex="1">
                    <mxGeometry x="603" y="140" width="34" height="34" as="geometry"/>
                </mxCell>
                <mxCell id="7" value="" style="outlineConnect=0;fontColor=#232F3E;gradientColor=none;fillColor=#5A30B5;strokeColor=none;dashed=0;verticalLabelPosition=bottom;verticalAlign=top;align=center;html=1;fontSize=12;fontStyle=0;aspect=fixed;pointerEvents=1;shape=mxgraph.aws4.elastic_network_interface;fontFamily=游ゴシック;" parent="1" vertex="1">
                    <mxGeometry x="601" y="210" width="38" height="38" as="geometry"/>
                </mxCell>
                <mxCell id="58" value="Private subnet" style="points=[[0,0],[0.25,0],[0.5,0],[0.75,0],[1,0],[1,0.25],[1,0.5],[1,0.75],[1,1],[0.75,1],[0.5,1],[0.25,1],[0,1],[0,0.75],[0,0.5],[0,0.25]];outlineConnect=0;gradientColor=none;html=1;whiteSpace=wrap;fontSize=12;fontStyle=0;shape=mxgraph.aws4.group;grIcon=mxgraph.aws4.group_security_group;grStroke=0;strokeColor=#147EBA;fillColor=#E6F2F8;verticalAlign=top;align=left;spacingLeft=30;fontColor=#147EBA;dashed=0;fontFamily=游ゴシック;" parent="1" vertex="1">
                    <mxGeometry x="564" y="390" width="120" height="70" as="geometry"/>
                </mxCell>
                <mxCell id="60" value="" style="outlineConnect=0;fontColor=#232F3E;gradientColor=none;fillColor=#D86613;strokeColor=none;dashed=0;verticalLabelPosition=bottom;verticalAlign=top;align=center;html=1;fontSize=12;fontStyle=0;aspect=fixed;pointerEvents=1;shape=mxgraph.aws4.instance2;fontFamily=游ゴシック;" parent="1" vertex="1">
                    <mxGeometry x="607" y="420" width="34" height="34" as="geometry"/>
                </mxCell>
                <mxCell id="N2lBgZz-f1XNfhXOoynp-221" style="edgeStyle=orthogonalEdgeStyle;rounded=0;orthogonalLoop=1;jettySize=auto;html=1;dashed=1;fontColor=#FF9999;endArrow=none;endFill=0;strokeColor=#FFFFFF;" parent="1" source="82" target="N2lBgZz-f1XNfhXOoynp-210" edge="1">
                    <mxGeometry relative="1" as="geometry">
                        <Array as="points">
                            <mxPoint x="300" y="225"/>
                            <mxPoint x="300" y="185"/>
                        </Array>
                    </mxGeometry>
                </mxCell>
                <mxCell id="82" value="Private subnet" style="points=[[0,0],[0.25,0],[0.5,0],[0.75,0],[1,0],[1,0.25],[1,0.5],[1,0.75],[1,1],[0.75,1],[0.5,1],[0.25,1],[0,1],[0,0.75],[0,0.5],[0,0.25]];outlineConnect=0;gradientColor=none;html=1;whiteSpace=wrap;fontSize=12;fontStyle=0;shape=mxgraph.aws4.group;grIcon=mxgraph.aws4.group_security_group;grStroke=0;strokeColor=#147EBA;fillColor=#E6F2F8;verticalAlign=top;align=left;spacingLeft=30;fontColor=#147EBA;dashed=0;fontFamily=游ゴシック;" parent="1" vertex="1">
                    <mxGeometry x="140" y="190" width="120" height="70" as="geometry"/>
                </mxCell>
                <mxCell id="N2lBgZz-f1XNfhXOoynp-223" style="edgeStyle=orthogonalEdgeStyle;rounded=0;orthogonalLoop=1;jettySize=auto;html=1;dashed=1;fontColor=#FF9999;endArrow=none;endFill=0;strokeColor=#FFFFFF;" parent="1" source="107" target="N2lBgZz-f1XNfhXOoynp-180" edge="1">
                    <mxGeometry relative="1" as="geometry">
                        <mxPoint x="331" y="185" as="targetPoint"/>
                        <Array as="points">
                            <mxPoint x="300" y="505"/>
                            <mxPoint x="300" y="425"/>
                        </Array>
                    </mxGeometry>
                </mxCell>
                <mxCell id="107" value="Private subnet" style="points=[[0,0],[0.25,0],[0.5,0],[0.75,0],[1,0],[1,0.25],[1,0.5],[1,0.75],[1,1],[0.75,1],[0.5,1],[0.25,1],[0,1],[0,0.75],[0,0.5],[0,0.25]];outlineConnect=0;gradientColor=none;html=1;whiteSpace=wrap;fontSize=12;fontStyle=0;shape=mxgraph.aws4.group;grIcon=mxgraph.aws4.group_security_group;grStroke=0;strokeColor=#147EBA;fillColor=#E6F2F8;verticalAlign=top;align=left;spacingLeft=30;fontColor=#147EBA;dashed=0;fontFamily=游ゴシック;" parent="1" vertex="1">
                    <mxGeometry x="140" y="470" width="120" height="70" as="geometry"/>
                </mxCell>
                <mxCell id="108" value="Private subnet" style="points=[[0,0],[0.25,0],[0.5,0],[0.75,0],[1,0],[1,0.25],[1,0.5],[1,0.75],[1,1],[0.75,1],[0.5,1],[0.25,1],[0,1],[0,0.75],[0,0.5],[0,0.25]];outlineConnect=0;gradientColor=none;html=1;whiteSpace=wrap;fontSize=12;fontStyle=0;shape=mxgraph.aws4.group;grIcon=mxgraph.aws4.group_security_group;grStroke=0;strokeColor=#147EBA;fillColor=#E6F2F8;verticalAlign=top;align=left;spacingLeft=30;fontColor=#147EBA;dashed=0;fontFamily=游ゴシック;" parent="1" vertex="1">
                    <mxGeometry x="140" y="390" width="120" height="70" as="geometry"/>
                </mxCell>
                <mxCell id="135" style="rounded=0;orthogonalLoop=1;jettySize=auto;html=1;exitX=1;exitY=0.5;exitDx=0;exitDy=0;exitPerimeter=0;strokeColor=#945DF2;opacity=80;fontFamily=游ゴシック;" parent="1" source="2" target="7" edge="1">
                    <mxGeometry relative="1" as="geometry">
                        <mxPoint x="454" y="310" as="sourcePoint"/>
                        <mxPoint x="591" y="519" as="targetPoint"/>
                    </mxGeometry>
                </mxCell>
                <mxCell id="N2lBgZz-f1XNfhXOoynp-135" value="" style="shape=table;html=1;whiteSpace=wrap;startSize=0;container=1;collapsible=0;childLayout=tableLayout;fontFamily=游ゴシック;" parent="1" vertex="1">
                    <mxGeometry x="670" y="120" width="130" height="60" as="geometry"/>
                </mxCell>
                <mxCell id="N2lBgZz-f1XNfhXOoynp-136" value="" style="shape=partialRectangle;html=1;whiteSpace=wrap;collapsible=0;dropTarget=0;pointerEvents=0;fillColor=none;top=0;left=0;bottom=0;right=0;points=[[0,0.5],[1,0.5]];portConstraint=eastwest;fontFamily=游ゴシック;strokeColor=#FFFFFF;labelBorderColor=none;labelBackgroundColor=none;" parent="N2lBgZz-f1XNfhXOoynp-135" vertex="1">
                    <mxGeometry width="130" height="20" as="geometry"/>
                </mxCell>
                <mxCell id="N2lBgZz-f1XNfhXOoynp-137" value="&lt;font&gt;Dest&lt;/font&gt;" style="shape=partialRectangle;html=1;whiteSpace=wrap;connectable=0;overflow=hidden;top=0;left=0;bottom=0;right=0;fontFamily=游ゴシック;fillColor=#000066;strokeColor=#FFFFFF;fontColor=#FFFFFF;" parent="N2lBgZz-f1XNfhXOoynp-136" vertex="1">
                    <mxGeometry width="71" height="20" as="geometry"/>
                </mxCell>
                <mxCell id="N2lBgZz-f1XNfhXOoynp-138" value="Target" style="shape=partialRectangle;html=1;whiteSpace=wrap;connectable=0;overflow=hidden;top=0;left=0;bottom=0;right=0;fontFamily=游ゴシック;strokeColor=#001DBC;fillColor=#000066;fontColor=#FFFFFF;" parent="N2lBgZz-f1XNfhXOoynp-136" vertex="1">
                    <mxGeometry x="71" width="59" height="20" as="geometry"/>
                </mxCell>
                <mxCell id="N2lBgZz-f1XNfhXOoynp-139" value="" style="shape=partialRectangle;html=1;whiteSpace=wrap;collapsible=0;dropTarget=0;pointerEvents=0;fillColor=none;top=0;left=0;bottom=0;right=0;points=[[0,0.5],[1,0.5]];portConstraint=eastwest;fontFamily=游ゴシック;" parent="N2lBgZz-f1XNfhXOoynp-135" vertex="1">
                    <mxGeometry y="20" width="130" height="20" as="geometry"/>
                </mxCell>
                <mxCell id="N2lBgZz-f1XNfhXOoynp-140" value="10.2.0.0/16" style="shape=partialRectangle;html=1;whiteSpace=wrap;connectable=0;overflow=hidden;fillColor=none;top=0;left=0;bottom=0;right=0;fontFamily=游ゴシック;" parent="N2lBgZz-f1XNfhXOoynp-139" vertex="1">
                    <mxGeometry width="71" height="20" as="geometry"/>
                </mxCell>
                <mxCell id="N2lBgZz-f1XNfhXOoynp-141" value="tgw" style="shape=partialRectangle;html=1;whiteSpace=wrap;connectable=0;overflow=hidden;fillColor=none;top=0;left=0;bottom=0;right=0;fontFamily=游ゴシック;" parent="N2lBgZz-f1XNfhXOoynp-139" vertex="1">
                    <mxGeometry x="71" width="59" height="20" as="geometry"/>
                </mxCell>
                <mxCell id="N2lBgZz-f1XNfhXOoynp-142" value="" style="shape=partialRectangle;html=1;whiteSpace=wrap;collapsible=0;dropTarget=0;pointerEvents=0;fillColor=none;top=0;left=0;bottom=0;right=0;points=[[0,0.5],[1,0.5]];portConstraint=eastwest;fontFamily=游ゴシック;" parent="N2lBgZz-f1XNfhXOoynp-135" vertex="1">
                    <mxGeometry y="40" width="130" height="20" as="geometry"/>
                </mxCell>
                <mxCell id="N2lBgZz-f1XNfhXOoynp-143" value="0.0.0.0/0" style="shape=partialRectangle;html=1;whiteSpace=wrap;connectable=0;overflow=hidden;fillColor=none;top=0;left=0;bottom=0;right=0;fontFamily=游ゴシック;" parent="N2lBgZz-f1XNfhXOoynp-142" vertex="1">
                    <mxGeometry width="71" height="20" as="geometry"/>
                </mxCell>
                <mxCell id="N2lBgZz-f1XNfhXOoynp-144" value="tgw" style="shape=partialRectangle;html=1;whiteSpace=wrap;connectable=0;overflow=hidden;fillColor=none;top=0;left=0;bottom=0;right=0;fontFamily=游ゴシック;" parent="N2lBgZz-f1XNfhXOoynp-142" vertex="1">
                    <mxGeometry x="71" width="59" height="20" as="geometry"/>
                </mxCell>
                <mxCell id="N2lBgZz-f1XNfhXOoynp-155" value="" style="shape=table;html=1;whiteSpace=wrap;startSize=0;container=1;collapsible=0;childLayout=tableLayout;fontFamily=游ゴシック;fontColor=#FFFFFF;" parent="1" vertex="1">
                    <mxGeometry x="674" y="400" width="130" height="60" as="geometry"/>
                </mxCell>
                <mxCell id="N2lBgZz-f1XNfhXOoynp-156" value="" style="shape=partialRectangle;html=1;whiteSpace=wrap;collapsible=0;dropTarget=0;pointerEvents=0;top=0;left=0;bottom=0;right=0;points=[[0,0.5],[1,0.5]];portConstraint=eastwest;fontFamily=游ゴシック;fontColor=#ffffff;fillColor=#000066;strokeColor=none;" parent="N2lBgZz-f1XNfhXOoynp-155" vertex="1">
                    <mxGeometry width="130" height="20" as="geometry"/>
                </mxCell>
                <mxCell id="N2lBgZz-f1XNfhXOoynp-157" value="&lt;font&gt;Dest&lt;/font&gt;" style="shape=partialRectangle;html=1;whiteSpace=wrap;connectable=0;overflow=hidden;fillColor=none;top=0;left=0;bottom=0;right=0;fontFamily=游ゴシック;fontColor=#FFFFFF;" parent="N2lBgZz-f1XNfhXOoynp-156" vertex="1">
                    <mxGeometry width="71" height="20" as="geometry"/>
                </mxCell>
                <mxCell id="N2lBgZz-f1XNfhXOoynp-158" value="Target" style="shape=partialRectangle;html=1;whiteSpace=wrap;connectable=0;overflow=hidden;fillColor=none;top=0;left=0;bottom=0;right=0;fontFamily=游ゴシック;fontColor=#FFFFFF;" parent="N2lBgZz-f1XNfhXOoynp-156" vertex="1">
                    <mxGeometry x="71" width="59" height="20" as="geometry"/>
                </mxCell>
                <mxCell id="N2lBgZz-f1XNfhXOoynp-159" value="" style="shape=partialRectangle;html=1;whiteSpace=wrap;collapsible=0;dropTarget=0;pointerEvents=0;fillColor=none;top=0;left=0;bottom=0;right=0;points=[[0,0.5],[1,0.5]];portConstraint=eastwest;fontFamily=游ゴシック;" parent="N2lBgZz-f1XNfhXOoynp-155" vertex="1">
                    <mxGeometry y="20" width="130" height="20" as="geometry"/>
                </mxCell>
                <mxCell id="N2lBgZz-f1XNfhXOoynp-160" value="10.1.0.0/16" style="shape=partialRectangle;html=1;whiteSpace=wrap;connectable=0;overflow=hidden;fillColor=none;top=0;left=0;bottom=0;right=0;fontFamily=游ゴシック;" parent="N2lBgZz-f1XNfhXOoynp-159" vertex="1">
                    <mxGeometry width="71" height="20" as="geometry"/>
                </mxCell>
                <mxCell id="N2lBgZz-f1XNfhXOoynp-161" value="tgw" style="shape=partialRectangle;html=1;whiteSpace=wrap;connectable=0;overflow=hidden;fillColor=none;top=0;left=0;bottom=0;right=0;fontFamily=游ゴシック;" parent="N2lBgZz-f1XNfhXOoynp-159" vertex="1">
                    <mxGeometry x="71" width="59" height="20" as="geometry"/>
                </mxCell>
                <mxCell id="N2lBgZz-f1XNfhXOoynp-162" value="" style="shape=partialRectangle;html=1;whiteSpace=wrap;collapsible=0;dropTarget=0;pointerEvents=0;fillColor=none;top=0;left=0;bottom=0;right=0;points=[[0,0.5],[1,0.5]];portConstraint=eastwest;fontFamily=游ゴシック;" parent="N2lBgZz-f1XNfhXOoynp-155" vertex="1">
                    <mxGeometry y="40" width="130" height="20" as="geometry"/>
                </mxCell>
                <mxCell id="N2lBgZz-f1XNfhXOoynp-163" value="0.0.0.0/0" style="shape=partialRectangle;html=1;whiteSpace=wrap;connectable=0;overflow=hidden;fillColor=none;top=0;left=0;bottom=0;right=0;fontFamily=游ゴシック;" parent="N2lBgZz-f1XNfhXOoynp-162" vertex="1">
                    <mxGeometry width="71" height="20" as="geometry"/>
                </mxCell>
                <mxCell id="N2lBgZz-f1XNfhXOoynp-164" value="tgw" style="shape=partialRectangle;html=1;whiteSpace=wrap;connectable=0;overflow=hidden;fillColor=none;top=0;left=0;bottom=0;right=0;fontFamily=游ゴシック;" parent="N2lBgZz-f1XNfhXOoynp-162" vertex="1">
                    <mxGeometry x="71" width="59" height="20" as="geometry"/>
                </mxCell>
                <mxCell id="N2lBgZz-f1XNfhXOoynp-175" value="" style="shape=table;html=1;whiteSpace=wrap;startSize=0;container=1;collapsible=0;childLayout=tableLayout;fontFamily=游ゴシック;fontSize=9;fontColor=#FFFFFF;" parent="1" vertex="1">
                    <mxGeometry x="331.5" y="350" width="165" height="113" as="geometry"/>
                </mxCell>
                <mxCell id="N2lBgZz-f1XNfhXOoynp-176" value="" style="shape=partialRectangle;html=1;whiteSpace=wrap;collapsible=0;dropTarget=0;pointerEvents=0;fillColor=none;top=0;left=0;bottom=0;right=0;points=[[0,0.5],[1,0.5]];portConstraint=eastwest;fontFamily=游ゴシック;" parent="N2lBgZz-f1XNfhXOoynp-175" vertex="1">
                    <mxGeometry width="165" height="30" as="geometry"/>
                </mxCell>
                <mxCell id="N2lBgZz-f1XNfhXOoynp-177" value="&lt;font style=&quot;font-size: 9px;&quot;&gt;Dest&lt;/font&gt;" style="shape=partialRectangle;html=1;whiteSpace=wrap;connectable=0;overflow=hidden;top=0;left=0;bottom=0;right=0;fontSize=9;fontFamily=游ゴシック;strokeColor=#001DBC;fontColor=#ffffff;fillColor=#000066;" parent="N2lBgZz-f1XNfhXOoynp-176" vertex="1">
                    <mxGeometry width="54" height="30" as="geometry"/>
                </mxCell>
                <mxCell id="N2lBgZz-f1XNfhXOoynp-178" value="Target" style="shape=partialRectangle;html=1;whiteSpace=wrap;connectable=0;overflow=hidden;top=0;left=0;bottom=0;right=0;fontSize=9;fontFamily=游ゴシック;strokeColor=#001DBC;fontColor=#ffffff;fillColor=#000066;" parent="N2lBgZz-f1XNfhXOoynp-176" vertex="1">
                    <mxGeometry x="54" width="56" height="30" as="geometry"/>
                </mxCell>
                <mxCell id="N2lBgZz-f1XNfhXOoynp-179" value="Route&lt;br style=&quot;font-size: 9px;&quot;&gt;Type" style="shape=partialRectangle;html=1;whiteSpace=wrap;connectable=0;overflow=hidden;top=0;left=0;bottom=0;right=0;fontSize=9;fontFamily=游ゴシック;strokeColor=#001DBC;fontColor=#ffffff;fillColor=#000066;" parent="N2lBgZz-f1XNfhXOoynp-176" vertex="1">
                    <mxGeometry x="110" width="55" height="30" as="geometry"/>
                </mxCell>
                <mxCell id="N2lBgZz-f1XNfhXOoynp-192" style="shape=partialRectangle;html=1;whiteSpace=wrap;collapsible=0;dropTarget=0;pointerEvents=0;fillColor=none;top=0;left=0;bottom=0;right=0;points=[[0,0.5],[1,0.5]];portConstraint=eastwest;fontFamily=游ゴシック;" parent="N2lBgZz-f1XNfhXOoynp-175" vertex="1">
                    <mxGeometry y="30" width="165" height="30" as="geometry"/>
                </mxCell>
                <mxCell id="N2lBgZz-f1XNfhXOoynp-193" value="10.1.0.0/16" style="shape=partialRectangle;html=1;whiteSpace=wrap;connectable=0;overflow=hidden;fillColor=none;top=0;left=0;bottom=0;right=0;fontFamily=游ゴシック;fontSize=9;" parent="N2lBgZz-f1XNfhXOoynp-192" vertex="1">
                    <mxGeometry width="54" height="30" as="geometry"/>
                </mxCell>
                <mxCell id="N2lBgZz-f1XNfhXOoynp-194" value="&lt;span&gt;WorkVPC2&lt;/span&gt;&lt;br&gt;&lt;span&gt;Attachment&lt;/span&gt;" style="shape=partialRectangle;html=1;whiteSpace=wrap;connectable=0;overflow=hidden;fillColor=none;top=0;left=0;bottom=0;right=0;fontFamily=游ゴシック;fontSize=9;" parent="N2lBgZz-f1XNfhXOoynp-192" vertex="1">
                    <mxGeometry x="54" width="56" height="30" as="geometry"/>
                </mxCell>
                <mxCell id="N2lBgZz-f1XNfhXOoynp-195" value="&lt;span&gt;propagated&lt;/span&gt;" style="shape=partialRectangle;html=1;whiteSpace=wrap;connectable=0;overflow=hidden;fillColor=none;top=0;left=0;bottom=0;right=0;fontFamily=游ゴシック;fontSize=9;" parent="N2lBgZz-f1XNfhXOoynp-192" vertex="1">
                    <mxGeometry x="110" width="55" height="30" as="geometry"/>
                </mxCell>
                <mxCell id="N2lBgZz-f1XNfhXOoynp-180" value="" style="shape=partialRectangle;html=1;whiteSpace=wrap;collapsible=0;dropTarget=0;pointerEvents=0;fillColor=none;top=0;left=0;bottom=0;right=0;points=[[0,0.5],[1,0.5]];portConstraint=eastwest;fontFamily=游ゴシック;" parent="N2lBgZz-f1XNfhXOoynp-175" vertex="1">
                    <mxGeometry y="60" width="165" height="30" as="geometry"/>
                </mxCell>
                <mxCell id="N2lBgZz-f1XNfhXOoynp-181" value="10.2.0.0/16" style="shape=partialRectangle;html=1;whiteSpace=wrap;connectable=0;overflow=hidden;fillColor=none;top=0;left=0;bottom=0;right=0;fontFamily=游ゴシック;fontSize=9;" parent="N2lBgZz-f1XNfhXOoynp-180" vertex="1">
                    <mxGeometry width="54" height="30" as="geometry"/>
                </mxCell>
                <mxCell id="N2lBgZz-f1XNfhXOoynp-182" value="WorkVPC2&lt;br&gt;Attachment" style="shape=partialRectangle;html=1;whiteSpace=wrap;connectable=0;overflow=hidden;fillColor=none;top=0;left=0;bottom=0;right=0;fontFamily=游ゴシック;fontSize=9;" parent="N2lBgZz-f1XNfhXOoynp-180" vertex="1">
                    <mxGeometry x="54" width="56" height="30" as="geometry"/>
                </mxCell>
                <mxCell id="N2lBgZz-f1XNfhXOoynp-183" value="propagated" style="shape=partialRectangle;html=1;whiteSpace=wrap;connectable=0;overflow=hidden;fillColor=none;top=0;left=0;bottom=0;right=0;fontFamily=游ゴシック;fontSize=9;" parent="N2lBgZz-f1XNfhXOoynp-180" vertex="1">
                    <mxGeometry x="110" width="55" height="30" as="geometry"/>
                </mxCell>
                <mxCell id="N2lBgZz-f1XNfhXOoynp-184" value="" style="shape=partialRectangle;html=1;whiteSpace=wrap;collapsible=0;dropTarget=0;pointerEvents=0;fillColor=none;top=0;left=0;bottom=0;right=0;points=[[0,0.5],[1,0.5]];portConstraint=eastwest;fontFamily=游ゴシック;" parent="N2lBgZz-f1XNfhXOoynp-175" vertex="1">
                    <mxGeometry y="90" width="165" height="23" as="geometry"/>
                </mxCell>
                <mxCell id="N2lBgZz-f1XNfhXOoynp-185" value="0.0.0.0/0" style="shape=partialRectangle;html=1;whiteSpace=wrap;connectable=0;overflow=hidden;fillColor=none;top=0;left=0;bottom=0;right=0;fontFamily=游ゴシック;fontSize=9;" parent="N2lBgZz-f1XNfhXOoynp-184" vertex="1">
                    <mxGeometry width="54" height="23" as="geometry"/>
                </mxCell>
                <mxCell id="N2lBgZz-f1XNfhXOoynp-186" value="Internet&lt;br&gt;VPC" style="shape=partialRectangle;html=1;whiteSpace=wrap;connectable=0;overflow=hidden;fillColor=none;top=0;left=0;bottom=0;right=0;fontFamily=游ゴシック;fontSize=9;" parent="N2lBgZz-f1XNfhXOoynp-184" vertex="1">
                    <mxGeometry x="54" width="56" height="23" as="geometry"/>
                </mxCell>
                <mxCell id="N2lBgZz-f1XNfhXOoynp-187" value="&lt;span style=&quot;font-size: 9px&quot;&gt;static&lt;br&gt;&lt;/span&gt;" style="shape=partialRectangle;html=1;whiteSpace=wrap;connectable=0;overflow=hidden;fillColor=none;top=0;left=0;bottom=0;right=0;fontFamily=游ゴシック;fontSize=9;" parent="N2lBgZz-f1XNfhXOoynp-184" vertex="1">
                    <mxGeometry x="110" width="55" height="23" as="geometry"/>
                </mxCell>
                <mxCell id="N2lBgZz-f1XNfhXOoynp-201" value="" style="shape=table;html=1;whiteSpace=wrap;startSize=0;container=1;collapsible=0;childLayout=tableLayout;fontFamily=游ゴシック;fontSize=9;fontColor=#FFFFFF;" parent="1" vertex="1">
                    <mxGeometry x="331" y="145" width="165" height="60" as="geometry"/>
                </mxCell>
                <mxCell id="N2lBgZz-f1XNfhXOoynp-202" value="" style="shape=partialRectangle;html=1;whiteSpace=wrap;collapsible=0;dropTarget=0;pointerEvents=0;fillColor=none;top=0;left=0;bottom=0;right=0;points=[[0,0.5],[1,0.5]];portConstraint=eastwest;fontFamily=游ゴシック;" parent="N2lBgZz-f1XNfhXOoynp-201" vertex="1">
                    <mxGeometry width="165" height="30" as="geometry"/>
                </mxCell>
                <mxCell id="N2lBgZz-f1XNfhXOoynp-203" value="&lt;font style=&quot;font-size: 9px;&quot;&gt;Dest&lt;/font&gt;" style="shape=partialRectangle;html=1;whiteSpace=wrap;connectable=0;overflow=hidden;top=0;left=0;bottom=0;right=0;fontSize=9;fontFamily=游ゴシック;strokeColor=#001DBC;fontColor=#ffffff;fillColor=#000066;" parent="N2lBgZz-f1XNfhXOoynp-202" vertex="1">
                    <mxGeometry width="51" height="30" as="geometry"/>
                </mxCell>
                <mxCell id="N2lBgZz-f1XNfhXOoynp-204" value="Target" style="shape=partialRectangle;html=1;whiteSpace=wrap;connectable=0;overflow=hidden;top=0;left=0;bottom=0;right=0;fontSize=9;fontFamily=游ゴシック;strokeColor=#001DBC;fontColor=#ffffff;fillColor=#000066;" parent="N2lBgZz-f1XNfhXOoynp-202" vertex="1">
                    <mxGeometry x="51" width="62" height="30" as="geometry"/>
                </mxCell>
                <mxCell id="N2lBgZz-f1XNfhXOoynp-205" value="Route&lt;br style=&quot;font-size: 9px;&quot;&gt;Type" style="shape=partialRectangle;html=1;whiteSpace=wrap;connectable=0;overflow=hidden;top=0;left=0;bottom=0;right=0;fontSize=9;fontFamily=游ゴシック;strokeColor=#001DBC;fontColor=#ffffff;fillColor=#000066;" parent="N2lBgZz-f1XNfhXOoynp-202" vertex="1">
                    <mxGeometry x="113" width="52" height="30" as="geometry"/>
                </mxCell>
                <mxCell id="N2lBgZz-f1XNfhXOoynp-210" value="" style="shape=partialRectangle;html=1;whiteSpace=wrap;collapsible=0;dropTarget=0;pointerEvents=0;fillColor=none;top=0;left=0;bottom=0;right=0;points=[[0,0.5],[1,0.5]];portConstraint=eastwest;fontFamily=游ゴシック;" parent="N2lBgZz-f1XNfhXOoynp-201" vertex="1">
                    <mxGeometry y="30" width="165" height="30" as="geometry"/>
                </mxCell>
                <mxCell id="N2lBgZz-f1XNfhXOoynp-211" value="0.0.0.0/0" style="shape=partialRectangle;html=1;whiteSpace=wrap;connectable=0;overflow=hidden;fillColor=none;top=0;left=0;bottom=0;right=0;fontFamily=游ゴシック;fontSize=9;" parent="N2lBgZz-f1XNfhXOoynp-210" vertex="1">
                    <mxGeometry width="51" height="30" as="geometry"/>
                </mxCell>
                <mxCell id="N2lBgZz-f1XNfhXOoynp-212" value="FirewallVPC1&lt;br&gt;Attachment" style="shape=partialRectangle;html=1;whiteSpace=wrap;connectable=0;overflow=hidden;fillColor=none;top=0;left=0;bottom=0;right=0;fontFamily=游ゴシック;fontSize=9;" parent="N2lBgZz-f1XNfhXOoynp-210" vertex="1">
                    <mxGeometry x="51" width="62" height="30" as="geometry"/>
                </mxCell>
                <mxCell id="N2lBgZz-f1XNfhXOoynp-213" value="propagated" style="shape=partialRectangle;html=1;whiteSpace=wrap;connectable=0;overflow=hidden;fillColor=none;top=0;left=0;bottom=0;right=0;fontFamily=游ゴシック;fontSize=9;" parent="N2lBgZz-f1XNfhXOoynp-210" vertex="1">
                    <mxGeometry x="113" width="52" height="30" as="geometry"/>
                </mxCell>
                <mxCell id="N2lBgZz-f1XNfhXOoynp-220" value="Association" style="text;html=1;align=center;verticalAlign=middle;resizable=0;points=[];autosize=1;strokeColor=none;fontColor=#FF9999;fontFamily=游ゴシック;" parent="1" vertex="1">
                    <mxGeometry x="490" y="160" width="80" height="20" as="geometry"/>
                </mxCell>
                <mxCell id="N2lBgZz-f1XNfhXOoynp-224" value="Association" style="text;html=1;align=center;verticalAlign=middle;resizable=0;points=[];autosize=1;strokeColor=none;fontColor=#FF9999;fontFamily=游ゴシック;" parent="1" vertex="1">
                    <mxGeometry x="255" y="160" width="80" height="20" as="geometry"/>
                </mxCell>
                <mxCell id="N2lBgZz-f1XNfhXOoynp-225" value="Association" style="text;html=1;align=center;verticalAlign=middle;resizable=0;points=[];autosize=1;strokeColor=none;fontColor=#FF9999;fontFamily=游ゴシック;" parent="1" vertex="1">
                    <mxGeometry x="255" y="400" width="80" height="20" as="geometry"/>
                </mxCell>
                <mxCell id="4FM8l2REisANMKHJQLLM-135" style="rounded=0;orthogonalLoop=1;jettySize=auto;html=1;exitX=0;exitY=0.5;exitDx=0;exitDy=0;exitPerimeter=0;strokeColor=#945DF2;opacity=80;fontFamily=游ゴシック;" parent="1" source="2" target="86" edge="1">
                    <mxGeometry relative="1" as="geometry">
                        <mxPoint x="454" y="310" as="sourcePoint"/>
                        <mxPoint x="611" y="246.66477272727275" as="targetPoint"/>
                    </mxGeometry>
                </mxCell>
                <mxCell id="86" value="" style="outlineConnect=0;fontColor=#232F3E;gradientColor=none;fillColor=#5A30B5;strokeColor=none;dashed=0;verticalLabelPosition=bottom;verticalAlign=top;align=center;html=1;fontSize=12;fontStyle=0;aspect=fixed;pointerEvents=1;shape=mxgraph.aws4.elastic_network_interface;fontFamily=游ゴシック;" parent="1" vertex="1">
                    <mxGeometry x="181" y="210" width="38" height="38" as="geometry"/>
                </mxCell>
                <mxCell id="4FM8l2REisANMKHJQLLM-137" style="rounded=0;orthogonalLoop=1;jettySize=auto;html=1;exitX=0;exitY=0.5;exitDx=0;exitDy=0;exitPerimeter=0;strokeColor=#945DF2;opacity=80;fontFamily=游ゴシック;" parent="1" source="2" target="111" edge="1">
                    <mxGeometry relative="1" as="geometry">
                        <mxPoint x="394" y="310" as="sourcePoint"/>
                        <mxPoint x="209" y="245.61274509803923" as="targetPoint"/>
                    </mxGeometry>
                </mxCell>
                <mxCell id="111" value="" style="outlineConnect=0;fontColor=#232F3E;gradientColor=none;fillColor=#5A30B5;strokeColor=none;dashed=0;verticalLabelPosition=bottom;verticalAlign=top;align=center;html=1;fontSize=12;fontStyle=0;aspect=fixed;pointerEvents=1;shape=mxgraph.aws4.elastic_network_interface;fontFamily=游ゴシック;" parent="1" vertex="1">
                    <mxGeometry x="181" y="490" width="38" height="38" as="geometry"/>
                </mxCell>
                <mxCell id="57" value="Private subnet" style="points=[[0,0],[0.25,0],[0.5,0],[0.75,0],[1,0],[1,0.25],[1,0.5],[1,0.75],[1,1],[0.75,1],[0.5,1],[0.25,1],[0,1],[0,0.75],[0,0.5],[0,0.25]];outlineConnect=0;gradientColor=none;html=1;whiteSpace=wrap;fontSize=12;fontStyle=0;shape=mxgraph.aws4.group;grIcon=mxgraph.aws4.group_security_group;grStroke=0;strokeColor=#147EBA;fillColor=#E6F2F8;verticalAlign=top;align=left;spacingLeft=30;fontColor=#147EBA;dashed=0;fontFamily=游ゴシック;" parent="1" vertex="1">
                    <mxGeometry x="564" y="470" width="120" height="70" as="geometry"/>
                </mxCell>
                <mxCell id="61" value="" style="outlineConnect=0;fontColor=#232F3E;gradientColor=none;fillColor=#5A30B5;strokeColor=none;dashed=0;verticalLabelPosition=bottom;verticalAlign=top;align=center;html=1;fontSize=12;fontStyle=0;aspect=fixed;pointerEvents=1;shape=mxgraph.aws4.elastic_network_interface;fontFamily=游ゴシック;" parent="1" vertex="1">
                    <mxGeometry x="605" y="490" width="38" height="38" as="geometry"/>
                </mxCell>
                <mxCell id="134" style="rounded=0;orthogonalLoop=1;jettySize=auto;html=1;exitX=1;exitY=0.5;exitDx=0;exitDy=0;exitPerimeter=0;strokeColor=#945DF2;opacity=80;fontFamily=游ゴシック;" parent="1" source="2" target="61" edge="1">
                    <mxGeometry relative="1" as="geometry">
                        <mxPoint x="444" y="300" as="sourcePoint"/>
                        <mxPoint x="500" y="600" as="targetPoint"/>
                    </mxGeometry>
                </mxCell>
                <mxCell id="4FM8l2REisANMKHJQLLM-138" value="" style="outlineConnect=0;fontColor=#232F3E;gradientColor=none;fillColor=#5A30B5;strokeColor=none;dashed=0;verticalLabelPosition=bottom;verticalAlign=top;align=center;html=1;fontSize=12;fontStyle=0;aspect=fixed;pointerEvents=1;shape=mxgraph.aws4.internet_gateway;labelBackgroundColor=#1A1A1A;" parent="1" vertex="1">
                    <mxGeometry x="181" y="40" width="38" height="38" as="geometry"/>
                </mxCell>
                <mxCell id="4FM8l2REisANMKHJQLLM-139" value="" style="shape=table;html=1;whiteSpace=wrap;startSize=0;container=1;collapsible=0;childLayout=tableLayout;fontFamily=游ゴシック;" parent="1" vertex="1">
                    <mxGeometry x="20" y="101" width="130" height="80" as="geometry"/>
                </mxCell>
                <mxCell id="4FM8l2REisANMKHJQLLM-140" value="" style="shape=partialRectangle;html=1;whiteSpace=wrap;collapsible=0;dropTarget=0;pointerEvents=0;fillColor=none;top=0;left=0;bottom=0;right=0;points=[[0,0.5],[1,0.5]];portConstraint=eastwest;fontFamily=游ゴシック;strokeColor=#FFFFFF;labelBorderColor=none;labelBackgroundColor=none;" parent="4FM8l2REisANMKHJQLLM-139" vertex="1">
                    <mxGeometry width="130" height="20" as="geometry"/>
                </mxCell>
                <mxCell id="4FM8l2REisANMKHJQLLM-141" value="&lt;font&gt;Dest&lt;/font&gt;" style="shape=partialRectangle;html=1;whiteSpace=wrap;connectable=0;overflow=hidden;top=0;left=0;bottom=0;right=0;fontFamily=游ゴシック;fillColor=#000066;strokeColor=#FFFFFF;fontColor=#FFFFFF;" parent="4FM8l2REisANMKHJQLLM-140" vertex="1">
                    <mxGeometry width="71" height="20" as="geometry"/>
                </mxCell>
                <mxCell id="4FM8l2REisANMKHJQLLM-142" value="Target" style="shape=partialRectangle;html=1;whiteSpace=wrap;connectable=0;overflow=hidden;top=0;left=0;bottom=0;right=0;fontFamily=游ゴシック;strokeColor=#001DBC;fillColor=#000066;fontColor=#FFFFFF;" parent="4FM8l2REisANMKHJQLLM-140" vertex="1">
                    <mxGeometry x="71" width="59" height="20" as="geometry"/>
                </mxCell>
                <mxCell id="4FM8l2REisANMKHJQLLM-165" value="" style="shape=partialRectangle;html=1;whiteSpace=wrap;collapsible=0;dropTarget=0;pointerEvents=0;fillColor=none;top=0;left=0;bottom=0;right=0;points=[[0,0.5],[1,0.5]];portConstraint=eastwest;fontFamily=游ゴシック;" parent="4FM8l2REisANMKHJQLLM-139" vertex="1">
                    <mxGeometry y="20" width="130" height="20" as="geometry"/>
                </mxCell>
                <mxCell id="4FM8l2REisANMKHJQLLM-166" value="10.1.0.0/16" style="shape=partialRectangle;html=1;whiteSpace=wrap;connectable=0;overflow=hidden;fillColor=none;top=0;left=0;bottom=0;right=0;fontFamily=游ゴシック;" parent="4FM8l2REisANMKHJQLLM-165" vertex="1">
                    <mxGeometry width="71" height="20" as="geometry"/>
                </mxCell>
                <mxCell id="4FM8l2REisANMKHJQLLM-167" value="tgw" style="shape=partialRectangle;html=1;whiteSpace=wrap;connectable=0;overflow=hidden;fillColor=none;top=0;left=0;bottom=0;right=0;fontFamily=游ゴシック;" parent="4FM8l2REisANMKHJQLLM-165" vertex="1">
                    <mxGeometry x="71" width="59" height="20" as="geometry"/>
                </mxCell>
                <mxCell id="4FM8l2REisANMKHJQLLM-143" value="" style="shape=partialRectangle;html=1;whiteSpace=wrap;collapsible=0;dropTarget=0;pointerEvents=0;fillColor=none;top=0;left=0;bottom=0;right=0;points=[[0,0.5],[1,0.5]];portConstraint=eastwest;fontFamily=游ゴシック;" parent="4FM8l2REisANMKHJQLLM-139" vertex="1">
                    <mxGeometry y="40" width="130" height="20" as="geometry"/>
                </mxCell>
                <mxCell id="4FM8l2REisANMKHJQLLM-144" value="10.2.0.0/16" style="shape=partialRectangle;html=1;whiteSpace=wrap;connectable=0;overflow=hidden;fillColor=none;top=0;left=0;bottom=0;right=0;fontFamily=游ゴシック;" parent="4FM8l2REisANMKHJQLLM-143" vertex="1">
                    <mxGeometry width="71" height="20" as="geometry"/>
                </mxCell>
                <mxCell id="4FM8l2REisANMKHJQLLM-145" value="tgw" style="shape=partialRectangle;html=1;whiteSpace=wrap;connectable=0;overflow=hidden;fillColor=none;top=0;left=0;bottom=0;right=0;fontFamily=游ゴシック;" parent="4FM8l2REisANMKHJQLLM-143" vertex="1">
                    <mxGeometry x="71" width="59" height="20" as="geometry"/>
                </mxCell>
                <mxCell id="4FM8l2REisANMKHJQLLM-146" value="" style="shape=partialRectangle;html=1;whiteSpace=wrap;collapsible=0;dropTarget=0;pointerEvents=0;fillColor=none;top=0;left=0;bottom=0;right=0;points=[[0,0.5],[1,0.5]];portConstraint=eastwest;fontFamily=游ゴシック;" parent="4FM8l2REisANMKHJQLLM-139" vertex="1">
                    <mxGeometry y="60" width="130" height="20" as="geometry"/>
                </mxCell>
                <mxCell id="4FM8l2REisANMKHJQLLM-147" value="0.0.0.0/0" style="shape=partialRectangle;html=1;whiteSpace=wrap;connectable=0;overflow=hidden;fillColor=none;top=0;left=0;bottom=0;right=0;fontFamily=游ゴシック;" parent="4FM8l2REisANMKHJQLLM-146" vertex="1">
                    <mxGeometry width="71" height="20" as="geometry"/>
                </mxCell>
                <mxCell id="4FM8l2REisANMKHJQLLM-148" value="igw" style="shape=partialRectangle;html=1;whiteSpace=wrap;connectable=0;overflow=hidden;fillColor=none;top=0;left=0;bottom=0;right=0;fontFamily=游ゴシック;" parent="4FM8l2REisANMKHJQLLM-146" vertex="1">
                    <mxGeometry x="71" width="59" height="20" as="geometry"/>
                </mxCell>
                <mxCell id="4FM8l2REisANMKHJQLLM-149" value="" style="shape=table;html=1;whiteSpace=wrap;startSize=0;container=1;collapsible=0;childLayout=tableLayout;fontFamily=游ゴシック;" parent="1" vertex="1">
                    <mxGeometry x="24" y="400" width="130" height="40" as="geometry"/>
                </mxCell>
                <mxCell id="4FM8l2REisANMKHJQLLM-150" value="" style="shape=partialRectangle;html=1;whiteSpace=wrap;collapsible=0;dropTarget=0;pointerEvents=0;top=0;left=0;bottom=0;right=0;points=[[0,0.5],[1,0.5]];portConstraint=eastwest;fontFamily=游ゴシック;fontColor=#ffffff;fillColor=#000066;strokeColor=none;" parent="4FM8l2REisANMKHJQLLM-149" vertex="1">
                    <mxGeometry width="130" height="20" as="geometry"/>
                </mxCell>
                <mxCell id="4FM8l2REisANMKHJQLLM-151" value="&lt;font&gt;Dest&lt;/font&gt;" style="shape=partialRectangle;html=1;whiteSpace=wrap;connectable=0;overflow=hidden;fillColor=none;top=0;left=0;bottom=0;right=0;fontFamily=游ゴシック;fontColor=#FFFFFF;" parent="4FM8l2REisANMKHJQLLM-150" vertex="1">
                    <mxGeometry width="71" height="20" as="geometry"/>
                </mxCell>
                <mxCell id="4FM8l2REisANMKHJQLLM-152" value="Target" style="shape=partialRectangle;html=1;whiteSpace=wrap;connectable=0;overflow=hidden;fillColor=none;top=0;left=0;bottom=0;right=0;fontFamily=游ゴシック;fontColor=#FFFFFF;" parent="4FM8l2REisANMKHJQLLM-150" vertex="1">
                    <mxGeometry x="71" width="59" height="20" as="geometry"/>
                </mxCell>
                <mxCell id="4FM8l2REisANMKHJQLLM-156" value="" style="shape=partialRectangle;html=1;whiteSpace=wrap;collapsible=0;dropTarget=0;pointerEvents=0;fillColor=none;top=0;left=0;bottom=0;right=0;points=[[0,0.5],[1,0.5]];portConstraint=eastwest;fontFamily=游ゴシック;" parent="4FM8l2REisANMKHJQLLM-149" vertex="1">
                    <mxGeometry y="20" width="130" height="20" as="geometry"/>
                </mxCell>
                <mxCell id="4FM8l2REisANMKHJQLLM-157" value="0.0.0.0/0" style="shape=partialRectangle;html=1;whiteSpace=wrap;connectable=0;overflow=hidden;fillColor=none;top=0;left=0;bottom=0;right=0;fontFamily=游ゴシック;" parent="4FM8l2REisANMKHJQLLM-156" vertex="1">
                    <mxGeometry width="71" height="20" as="geometry"/>
                </mxCell>
                <mxCell id="4FM8l2REisANMKHJQLLM-158" value="tgw" style="shape=partialRectangle;html=1;whiteSpace=wrap;connectable=0;overflow=hidden;fillColor=none;top=0;left=0;bottom=0;right=0;fontFamily=游ゴシック;" parent="4FM8l2REisANMKHJQLLM-156" vertex="1">
                    <mxGeometry x="71" width="59" height="20" as="geometry"/>
                </mxCell>
                <mxCell id="N2lBgZz-f1XNfhXOoynp-219" style="edgeStyle=orthogonalEdgeStyle;rounded=0;orthogonalLoop=1;jettySize=auto;html=1;exitX=0;exitY=0.5;exitDx=0;exitDy=0;entryX=1;entryY=0.5;entryDx=0;entryDy=0;dashed=1;endArrow=none;endFill=0;jumpStyle=arc;jumpSize=10;strokeColor=#FFFFFF;" parent="1" source="57" target="N2lBgZz-f1XNfhXOoynp-210" edge="1">
                    <mxGeometry relative="1" as="geometry">
                        <Array as="points">
                            <mxPoint x="510" y="505"/>
                            <mxPoint x="510" y="185"/>
                        </Array>
                    </mxGeometry>
                </mxCell>
                <mxCell id="4FM8l2REisANMKHJQLLM-174" value="" style="shape=table;html=1;whiteSpace=wrap;startSize=0;container=1;collapsible=0;childLayout=tableLayout;fontFamily=游ゴシック;" parent="1" vertex="1">
                    <mxGeometry x="20" y="210" width="130" height="40" as="geometry"/>
                </mxCell>
                <mxCell id="4FM8l2REisANMKHJQLLM-175" value="" style="shape=partialRectangle;html=1;whiteSpace=wrap;collapsible=0;dropTarget=0;pointerEvents=0;top=0;left=0;bottom=0;right=0;points=[[0,0.5],[1,0.5]];portConstraint=eastwest;fontFamily=游ゴシック;fontColor=#ffffff;fillColor=#000066;strokeColor=none;" parent="4FM8l2REisANMKHJQLLM-174" vertex="1">
                    <mxGeometry width="130" height="20" as="geometry"/>
                </mxCell>
                <mxCell id="4FM8l2REisANMKHJQLLM-176" value="&lt;font&gt;Dest&lt;/font&gt;" style="shape=partialRectangle;html=1;whiteSpace=wrap;connectable=0;overflow=hidden;fillColor=none;top=0;left=0;bottom=0;right=0;fontFamily=游ゴシック;fontColor=#FFFFFF;" parent="4FM8l2REisANMKHJQLLM-175" vertex="1">
                    <mxGeometry width="71" height="20" as="geometry"/>
                </mxCell>
                <mxCell id="4FM8l2REisANMKHJQLLM-177" value="Target" style="shape=partialRectangle;html=1;whiteSpace=wrap;connectable=0;overflow=hidden;fillColor=none;top=0;left=0;bottom=0;right=0;fontFamily=游ゴシック;fontColor=#FFFFFF;" parent="4FM8l2REisANMKHJQLLM-175" vertex="1">
                    <mxGeometry x="71" width="59" height="20" as="geometry"/>
                </mxCell>
                <mxCell id="4FM8l2REisANMKHJQLLM-178" value="" style="shape=partialRectangle;html=1;whiteSpace=wrap;collapsible=0;dropTarget=0;pointerEvents=0;fillColor=none;top=0;left=0;bottom=0;right=0;points=[[0,0.5],[1,0.5]];portConstraint=eastwest;fontFamily=游ゴシック;" parent="4FM8l2REisANMKHJQLLM-174" vertex="1">
                    <mxGeometry y="20" width="130" height="20" as="geometry"/>
                </mxCell>
                <mxCell id="4FM8l2REisANMKHJQLLM-179" value="0.0.0.0/0" style="shape=partialRectangle;html=1;whiteSpace=wrap;connectable=0;overflow=hidden;fillColor=none;top=0;left=0;bottom=0;right=0;fontFamily=游ゴシック;" parent="4FM8l2REisANMKHJQLLM-178" vertex="1">
                    <mxGeometry width="71" height="20" as="geometry"/>
                </mxCell>
                <mxCell id="4FM8l2REisANMKHJQLLM-180" value="nat" style="shape=partialRectangle;html=1;whiteSpace=wrap;connectable=0;overflow=hidden;fillColor=none;top=0;left=0;bottom=0;right=0;fontFamily=游ゴシック;" parent="4FM8l2REisANMKHJQLLM-178" vertex="1">
                    <mxGeometry x="71" width="59" height="20" as="geometry"/>
                </mxCell>
                <mxCell id="4FM8l2REisANMKHJQLLM-187" value="" style="shape=table;html=1;whiteSpace=wrap;startSize=0;container=1;collapsible=0;childLayout=tableLayout;fontFamily=游ゴシック;" parent="1" vertex="1">
                    <mxGeometry x="24" y="490" width="130" height="60" as="geometry"/>
                </mxCell>
                <mxCell id="4FM8l2REisANMKHJQLLM-188" value="" style="shape=partialRectangle;html=1;whiteSpace=wrap;collapsible=0;dropTarget=0;pointerEvents=0;top=0;left=0;bottom=0;right=0;points=[[0,0.5],[1,0.5]];portConstraint=eastwest;fontFamily=游ゴシック;fontColor=#ffffff;fillColor=#000066;strokeColor=none;" parent="4FM8l2REisANMKHJQLLM-187" vertex="1">
                    <mxGeometry width="130" height="20" as="geometry"/>
                </mxCell>
                <mxCell id="4FM8l2REisANMKHJQLLM-189" value="&lt;font&gt;Dest&lt;/font&gt;" style="shape=partialRectangle;html=1;whiteSpace=wrap;connectable=0;overflow=hidden;fillColor=none;top=0;left=0;bottom=0;right=0;fontFamily=游ゴシック;fontColor=#FFFFFF;" parent="4FM8l2REisANMKHJQLLM-188" vertex="1">
                    <mxGeometry width="71" height="20" as="geometry"/>
                </mxCell>
                <mxCell id="4FM8l2REisANMKHJQLLM-190" value="Target" style="shape=partialRectangle;html=1;whiteSpace=wrap;connectable=0;overflow=hidden;fillColor=none;top=0;left=0;bottom=0;right=0;fontFamily=游ゴシック;fontColor=#FFFFFF;" parent="4FM8l2REisANMKHJQLLM-188" vertex="1">
                    <mxGeometry x="71" width="59" height="20" as="geometry"/>
                </mxCell>
                <mxCell id="4FM8l2REisANMKHJQLLM-191" value="" style="shape=partialRectangle;html=1;whiteSpace=wrap;collapsible=0;dropTarget=0;pointerEvents=0;fillColor=none;top=0;left=0;bottom=0;right=0;points=[[0,0.5],[1,0.5]];portConstraint=eastwest;fontFamily=游ゴシック;" parent="4FM8l2REisANMKHJQLLM-187" vertex="1">
                    <mxGeometry y="20" width="130" height="40" as="geometry"/>
                </mxCell>
                <mxCell id="4FM8l2REisANMKHJQLLM-192" value="0.0.0.0/0" style="shape=partialRectangle;html=1;whiteSpace=wrap;connectable=0;overflow=hidden;fillColor=none;top=0;left=0;bottom=0;right=0;fontFamily=游ゴシック;" parent="4FM8l2REisANMKHJQLLM-191" vertex="1">
                    <mxGeometry width="71" height="40" as="geometry"/>
                </mxCell>
                <mxCell id="4FM8l2REisANMKHJQLLM-193" value="firewall&lt;br&gt;endpoint" style="shape=partialRectangle;html=1;whiteSpace=wrap;connectable=0;overflow=hidden;fillColor=none;top=0;left=0;bottom=0;right=0;fontFamily=游ゴシック;" parent="4FM8l2REisANMKHJQLLM-191" vertex="1">
                    <mxGeometry x="71" width="59" height="40" as="geometry"/>
                </mxCell>
                <mxCell id="4FM8l2REisANMKHJQLLM-195" value="" style="outlineConnect=0;fontColor=#232F3E;gradientColor=none;fillColor=#C7131F;strokeColor=none;dashed=0;verticalLabelPosition=bottom;verticalAlign=top;align=center;html=1;fontSize=12;fontStyle=0;aspect=fixed;pointerEvents=1;shape=mxgraph.aws4.network_firewall_endpoints;labelBackgroundColor=#1A1A1A;" parent="1" vertex="1">
                    <mxGeometry x="181" y="418" width="38" height="38" as="geometry"/>
                </mxCell>
            </root>
        </mxGraphModel>
    </diagram>
</mxfile>